<svg xmlns="http://www.w3.org/2000/svg" xmlns:xlink="http://www.w3.org/1999/xlink" version="1.1" x="0px" y="0px" viewBox="0 0 100 125" style="enable-background:new 0 0 100 100;" xml:space="preserve"><style type="text/css">
	.st0{fill:none;stroke:#000000;stroke-width:2;stroke-linecap:round;stroke-linejoin:round;stroke-miterlimit:10;}
	.st1{fill:none;stroke:#000000;stroke-width:2;stroke-linecap:round;stroke-linejoin:round;}
	.st2{fill:none;stroke:#000000;stroke-width:2;stroke-linecap:round;stroke-linejoin:round;stroke-dasharray:2.9177,3.8902;}
	.st3{fill:none;stroke:#000000;stroke-width:2;stroke-linecap:round;stroke-linejoin:round;stroke-dasharray:2.9655,3.954;}
	.st4{fill:none;stroke:#000000;stroke-width:2;stroke-linecap:round;stroke-linejoin:round;stroke-dasharray:2.7633,3.6844;}
	.st5{fill:none;stroke:#000000;stroke-width:2;stroke-miterlimit:10;}
</style><path d="M87.7,41c0.4,0.4,1,0.4,1.4,0c0.4-0.4,0.4-1,0-1.4l-4.3-4.3c0,0,0,0,0,0c-0.2-0.2-0.4-0.3-0.7-0.3s-0.5,0.1-0.7,0.3  c0,0,0,0,0,0l-4.3,4.3c-0.4,0.4-0.4,1,0,1.4c0.2,0.2,0.5,0.3,0.7,0.3c0.3,0,0.5-0.1,0.7-0.3l2.6-2.6v1.7l-4,4c-0.4,0.4-0.4,1,0,1.4  c0.2,0.2,0.5,0.3,0.7,0.3c0.3,0,0.5-0.1,0.7-0.3l2.6-2.6v1.7l-4,4c-0.4,0.4-0.4,1,0,1.4c0.2,0.2,0.5,0.3,0.7,0.3  c0.3,0,0.5-0.1,0.7-0.3l2.6-2.6v7.6h-3.4l-24-44.8c-0.3-0.7-1.4-0.7-1.8,0L38.7,39l-7.2-13.4c-0.3-0.7-1.4-0.7-1.8,0L13.9,55.2h-1.6  c-0.6,0-1,0.4-1,1s0.4,1,1,1h76.1c0.6,0,1-0.4,1-1s-0.4-1-1-1h-3.3v-7.6l2.6,2.6c0.4,0.4,1,0.4,1.4,0c0.4-0.4,0.4-1,0-1.4l-4-4V43  l2.6,2.6c0.4,0.4,1,0.4,1.4,0c0.4-0.4,0.4-1,0-1.4l-4-4v-1.7L87.7,41z M40.1,40.8L54.9,13l22.6,42.2H56.6v-7.6l2.6,2.6  c0.4,0.4,1,0.4,1.4,0c0.4-0.4,0.4-1,0-1.4l-4-4V43l2.6,2.6c0.4,0.4,1,0.4,1.4,0c0.4-0.4,0.4-1,0-1.4l-4-4v-1.7l2.6,2.6  c0.4,0.4,1,0.4,1.4,0c0.4-0.4,0.4-1,0-1.4l-4.3-4.3c0,0,0,0,0,0c-0.2-0.2-0.4-0.3-0.7-0.3s-0.5,0.1-0.7,0.3c0,0,0,0,0,0l-4.3,4.3  c-0.4,0.4-0.4,1,0,1.4c0.2,0.2,0.5,0.3,0.7,0.3c0.3,0,0.5-0.1,0.7-0.3l2.6-2.6v1.7l-4,4c-0.4,0.4-0.4,1,0,1.4  c0.2,0.2,0.5,0.3,0.7,0.3c0.3,0,0.5-0.1,0.7-0.3l2.6-2.6v1.7l-4,4c-0.4,0.4-0.4,1,0,1.4c0.2,0.2,0.5,0.3,0.7,0.3  c0.3,0,0.5-0.1,0.7-0.3l2.6-2.6v7.6h-7.2L39.8,41C39.9,41,40,40.9,40.1,40.8z M30.7,28.2l14.5,27H16.2L30.7,28.2z"/><path d="M88.4,72.7c-0.6,0-1,0.4-1,1c0,1.8-1.4,3.2-3.2,3.2S81,75.5,81,73.7c0-0.6-0.4-1-1-1s-1,0.4-1,1c0,1.8-1.4,3.2-3.2,3.2  s-3.2-1.4-3.2-3.2c0-0.6-0.4-1-1-1s-1,0.4-1,1c0,1.8-1.4,3.2-3.2,3.2s-3.2-1.4-3.2-3.2c0-0.6-0.4-1-1-1s-1,0.4-1,1  c0,1.8-1.4,3.2-3.2,3.2s-3.2-1.4-3.2-3.2c0-0.6-0.4-1-1-1s-1,0.4-1,1c0,1.8-1.4,3.2-3.2,3.2c-1.8,0-3.2-1.4-3.2-3.2c0-0.6-0.4-1-1-1  s-1,0.4-1,1c0,1.8-1.4,3.2-3.2,3.2s-3.2-1.4-3.2-3.2c0-0.6-0.4-1-1-1s-1,0.4-1,1c0,1.8-1.4,3.2-3.2,3.2s-3.2-1.4-3.2-3.2  c0-0.6-0.4-1-1-1s-1,0.4-1,1c0,1.8-1.4,3.2-3.2,3.2s-3.2-1.4-3.2-3.2c0-0.6-0.4-1-1-1s-1,0.4-1,1c0,1.8-1.4,3.2-3.2,3.2  s-3.2-1.4-3.2-3.2c0-0.6-0.4-1-1-1s-1,0.4-1,1c0,2.9,2.3,5.2,5.2,5.2c1.7,0,3.3-0.9,4.2-2.2c1,1.3,2.5,2.2,4.2,2.2s3.3-0.9,4.2-2.2  c1,1.3,2.5,2.2,4.2,2.2s3.3-0.9,4.2-2.2c1,1.3,2.5,2.2,4.2,2.2s3.3-0.9,4.2-2.2c1,1.3,2.5,2.2,4.2,2.2c1.7,0,3.3-0.9,4.2-2.2  c1,1.3,2.5,2.2,4.2,2.2c1.7,0,3.3-0.9,4.2-2.2c1,1.3,2.5,2.2,4.2,2.2s3.3-0.9,4.2-2.2c1,1.3,2.5,2.2,4.2,2.2s3.3-0.9,4.2-2.2  c1,1.3,2.5,2.2,4.2,2.2c2.9,0,5.2-2.3,5.2-5.2C89.4,73.2,89,72.7,88.4,72.7z"/><path d="M88.4,64.3c-0.6,0-1,0.4-1,1c0,1.8-1.4,3.2-3.2,3.2S81,67.1,81,65.3c0-0.6-0.4-1-1-1s-1,0.4-1,1c0,1.8-1.4,3.2-3.2,3.2  s-3.2-1.4-3.2-3.2c0-0.6-0.4-1-1-1s-1,0.4-1,1c0,1.8-1.4,3.2-3.2,3.2s-3.2-1.4-3.2-3.2c0-0.6-0.4-1-1-1s-1,0.4-1,1  c0,1.8-1.4,3.2-3.2,3.2s-3.2-1.4-3.2-3.2c0-0.6-0.4-1-1-1s-1,0.4-1,1c0,1.8-1.4,3.2-3.2,3.2c-1.8,0-3.2-1.4-3.2-3.2c0-0.6-0.4-1-1-1  s-1,0.4-1,1c0,1.8-1.4,3.2-3.2,3.2s-3.2-1.4-3.2-3.2c0-0.6-0.4-1-1-1s-1,0.4-1,1c0,1.8-1.4,3.2-3.2,3.2s-3.2-1.4-3.2-3.2  c0-0.6-0.4-1-1-1s-1,0.4-1,1c0,1.8-1.4,3.2-3.2,3.2s-3.2-1.4-3.2-3.2c0-0.6-0.4-1-1-1s-1,0.4-1,1c0,1.8-1.4,3.2-3.2,3.2  s-3.2-1.4-3.2-3.2c0-0.6-0.4-1-1-1s-1,0.4-1,1c0,2.9,2.3,5.2,5.2,5.2c1.7,0,3.3-0.9,4.2-2.2c1,1.3,2.5,2.2,4.2,2.2s3.3-0.9,4.2-2.2  c1,1.3,2.5,2.2,4.2,2.2s3.3-0.9,4.2-2.2c1,1.3,2.5,2.2,4.2,2.2s3.3-0.9,4.2-2.2c1,1.3,2.5,2.2,4.2,2.2c1.7,0,3.3-0.9,4.2-2.2  c1,1.3,2.5,2.2,4.2,2.2c1.7,0,3.3-0.9,4.2-2.2c1,1.3,2.5,2.2,4.2,2.2s3.3-0.9,4.2-2.2c1,1.3,2.5,2.2,4.2,2.2s3.3-0.9,4.2-2.2  c1,1.3,2.5,2.2,4.2,2.2c2.9,0,5.2-2.3,5.2-5.2C89.4,64.8,89,64.3,88.4,64.3z"/><path d="M88.4,80.6c-0.6,0-1,0.4-1,1c0,1.8-1.4,3.2-3.2,3.2S81,83.4,81,81.6c0-0.6-0.4-1-1-1s-1,0.4-1,1c0,1.8-1.4,3.2-3.2,3.2  s-3.2-1.4-3.2-3.2c0-0.6-0.4-1-1-1s-1,0.4-1,1c0,1.8-1.4,3.2-3.2,3.2s-3.2-1.4-3.2-3.2c0-0.6-0.4-1-1-1s-1,0.4-1,1  c0,1.8-1.4,3.2-3.2,3.2s-3.2-1.4-3.2-3.2c0-0.6-0.4-1-1-1s-1,0.4-1,1c0,1.8-1.4,3.2-3.2,3.2c-1.8,0-3.2-1.4-3.2-3.2c0-0.6-0.4-1-1-1  s-1,0.4-1,1c0,1.8-1.4,3.2-3.2,3.2s-3.2-1.4-3.2-3.2c0-0.6-0.4-1-1-1s-1,0.4-1,1c0,1.8-1.4,3.2-3.2,3.2s-3.2-1.4-3.2-3.2  c0-0.6-0.4-1-1-1s-1,0.4-1,1c0,1.8-1.4,3.2-3.2,3.2s-3.2-1.4-3.2-3.2c0-0.6-0.4-1-1-1s-1,0.4-1,1c0,1.8-1.4,3.2-3.2,3.2  s-3.2-1.4-3.2-3.2c0-0.6-0.4-1-1-1s-1,0.4-1,1c0,2.9,2.3,5.2,5.2,5.2c1.7,0,3.3-0.9,4.2-2.2c1,1.3,2.5,2.2,4.2,2.2s3.3-0.9,4.2-2.2  c1,1.3,2.5,2.2,4.2,2.2s3.3-0.9,4.2-2.2c1,1.3,2.5,2.2,4.2,2.2s3.3-0.9,4.2-2.2c1,1.3,2.5,2.2,4.2,2.2c1.7,0,3.3-0.9,4.2-2.2  c1,1.3,2.5,2.2,4.2,2.2c1.7,0,3.3-0.9,4.2-2.2c1,1.3,2.5,2.2,4.2,2.2s3.3-0.9,4.2-2.2c1,1.3,2.5,2.2,4.2,2.2S79,86,80,84.7  c1,1.3,2.5,2.2,4.2,2.2c2.9,0,5.2-2.3,5.2-5.2C89.4,81.1,89,80.6,88.4,80.6z"/><text x="0" y="115" fill="#000000" font-size="5px" font-weight="bold" font-family="'Helvetica Neue', Helvetica, Arial-Unicode, Arial, Sans-serif">Created by Made by Made</text><text x="0" y="120" fill="#000000" font-size="5px" font-weight="bold" font-family="'Helvetica Neue', Helvetica, Arial-Unicode, Arial, Sans-serif">from the Noun Project</text></svg>