<svg xmlns="http://www.w3.org/2000/svg" xmlns:xlink="http://www.w3.org/1999/xlink" version="1.1" x="0px" y="0px" viewBox="0 0 100 125" style="enable-background:new 0 0 100 100;" xml:space="preserve"><style type="text/css">
	.st0{fill:none;stroke:#000000;stroke-width:2;stroke-linecap:round;stroke-linejoin:round;stroke-miterlimit:10;}
	.st1{fill:none;stroke:#000000;stroke-width:2;stroke-linecap:round;stroke-linejoin:round;}
	.st2{fill:none;stroke:#000000;stroke-width:2;stroke-linecap:round;stroke-linejoin:round;stroke-dasharray:2.9177,3.8902;}
	.st3{fill:none;stroke:#000000;stroke-width:2;stroke-linecap:round;stroke-linejoin:round;stroke-dasharray:2.9655,3.954;}
	.st4{fill:none;stroke:#000000;stroke-width:2;stroke-linecap:round;stroke-linejoin:round;stroke-dasharray:2.7633,3.6844;}
	.st5{fill:none;stroke:#000000;stroke-width:2;stroke-miterlimit:10;}
</style><path d="M22.7,32.8c0.6,0,1-0.5,0.9-1.1c-0.1-0.9-0.1-1.9-0.1-2.9c0-0.6-0.5-0.9-1-1c-0.6,0-1,0.5-1,1c0,1,0.1,2,0.2,3  C21.6,32.5,22.1,32.9,22.7,32.8C22.6,32.9,22.6,32.9,22.7,32.8z"/><path d="M32.7,55.3c0.4,0.3,0.8,0.6,1.2,0.9c0.2,0.1,0.4,0.2,0.6,0.2c0.3,0,0.6-0.1,0.8-0.4c0.3-0.4,0.3-1.1-0.2-1.4  c-0.4-0.3-0.7-0.6-1.1-0.9c-0.4-0.3-0.7-0.6-1.1-0.9c-0.4-0.4-1-0.4-1.4,0s-0.4,1,0,1.4C32,54.6,32.3,54.9,32.7,55.3z"/><path d="M23.7,39.6c0.1,0,0.2,0,0.2,0c0.5-0.1,0.9-0.7,0.7-1.2c-0.2-0.9-0.4-1.8-0.6-2.8c-0.1-0.5-0.6-0.9-1.2-0.8  c-0.5,0.1-0.9,0.6-0.8,1.2c0.2,1,0.4,2,0.6,2.9C22.8,39.3,23.2,39.6,23.7,39.6z"/><path d="M25.1,45.4c0.2,0.4,0.5,0.6,0.9,0.6c0.1,0,0.3,0,0.4-0.1c0.5-0.2,0.7-0.8,0.5-1.3c-0.4-0.8-0.8-1.7-1.1-2.6  c-0.2-0.5-0.8-0.8-1.3-0.6c-0.5,0.2-0.8,0.8-0.6,1.3C24.3,43.6,24.7,44.5,25.1,45.4z"/><path d="M43.3,61.7c0.9,0.4,1.8,0.8,2.7,1.2c0.1,0.1,0.3,0.1,0.4,0.1c0.4,0,0.8-0.2,0.9-0.6c0.2-0.5,0-1.1-0.5-1.3  c-0.9-0.4-1.8-0.8-2.6-1.2c-0.5-0.2-1.1,0-1.3,0.5C42.6,60.9,42.8,61.5,43.3,61.7z"/><path d="M76.3,77.4c0.2,0.2,0.4,0.3,0.7,0.3c0.3,0,0.5-0.1,0.7-0.3c0.4-0.4,0.3-1-0.1-1.4c-0.7-0.6-1.5-1.3-2.3-1.9  c-0.4-0.3-1.1-0.2-1.4,0.2c-0.3,0.4-0.2,1.1,0.2,1.4C74.9,76.2,75.6,76.8,76.3,77.4z"/><path d="M81.1,82.9c0.2,0,0.3,0,0.5-0.1c0.5-0.2,0.7-0.9,0.4-1.3c-0.4-0.9-1-1.7-1.6-2.5c-0.3-0.4-1-0.5-1.4-0.2s-0.5,1-0.2,1.4  c0.5,0.7,1,1.5,1.4,2.3C80.4,82.7,80.7,82.9,81.1,82.9z"/><path d="M68.4,72.2c0.9,0.5,1.7,0.9,2.5,1.4c0.2,0.1,0.3,0.1,0.5,0.1c0.3,0,0.7-0.2,0.9-0.5c0.3-0.5,0.1-1.1-0.4-1.4  c-0.8-0.5-1.7-0.9-2.6-1.4c-0.5-0.2-1.1-0.1-1.3,0.4C67.7,71.3,67.9,71.9,68.4,72.2z"/><path d="M59.4,66.1c-0.9-0.4-1.8-0.7-2.7-1.1c-0.5-0.2-1.1,0.1-1.3,0.6c-0.2,0.5,0.1,1.1,0.6,1.3c0.9,0.3,1.8,0.7,2.7,1.1  c0.1,0,0.2,0.1,0.4,0.1c0.4,0,0.8-0.2,0.9-0.6C60.2,66.9,59.9,66.3,59.4,66.1z"/><path d="M62.3,69.4c0.9,0.4,1.8,0.8,2.7,1.1c0.1,0.1,0.3,0.1,0.4,0.1c0.4,0,0.7-0.2,0.9-0.6c0.2-0.5,0-1.1-0.5-1.3  c-0.9-0.4-1.8-0.8-2.7-1.2c-0.5-0.2-1.1,0-1.3,0.5C61.5,68.6,61.8,69.2,62.3,69.4z"/><path d="M53.1,63.6c-0.9-0.4-1.8-0.7-2.7-1.1c-0.5-0.2-1.1,0-1.3,0.6c-0.2,0.5,0,1.1,0.6,1.3c0.9,0.4,1.8,0.7,2.7,1.1  c0.1,0,0.2,0.1,0.4,0.1c0.4,0,0.8-0.2,0.9-0.6C53.8,64.4,53.6,63.8,53.1,63.6z"/><path d="M37.2,58.5c0.8,0.5,1.7,1,2.6,1.5c0.2,0.1,0.3,0.1,0.5,0.1c0.4,0,0.7-0.2,0.9-0.5c0.3-0.5,0.1-1.1-0.4-1.4  c-0.9-0.5-1.7-0.9-2.5-1.4c-0.5-0.3-1.1-0.1-1.4,0.3C36.6,57.6,36.7,58.2,37.2,58.5z"/><path d="M28.7,47.8c-0.3-0.5-0.9-0.6-1.4-0.3c-0.5,0.3-0.6,0.9-0.3,1.4c0.6,0.8,1.2,1.7,1.8,2.4c0.2,0.2,0.5,0.4,0.8,0.4  c0.2,0,0.4-0.1,0.6-0.2c0.4-0.3,0.5-1,0.1-1.4C29.8,49.3,29.3,48.6,28.7,47.8z"/><path d="M82.1,84.3c-0.5,0.1-0.9,0.7-0.7,1.2c0.2,0.8,0.3,1.7,0.4,2.6c0,0.5,0.5,0.9,1,0.9c0,0,0,0,0.1,0c0.6,0,1-0.5,0.9-1.1  c-0.1-1-0.2-2-0.4-2.9C83.2,84.5,82.6,84.2,82.1,84.3z"/><path d="M17.4,24.5c0.2,0.2,0.5,0.3,0.7,0.3s0.5-0.1,0.7-0.3l3.6-3.6l3.6,3.6c0.2,0.2,0.5,0.3,0.7,0.3s0.5-0.1,0.7-0.3  c0.4-0.4,0.4-1,0-1.4l-3.6-3.6l3.6-3.6c0.4-0.4,0.4-1,0-1.4s-1-0.4-1.4,0l-3.6,3.6l-3.6-3.6c-0.4-0.4-1-0.4-1.4,0s-0.4,1,0,1.4  l3.6,3.6l-3.6,3.6C17,23.5,17,24.1,17.4,24.5z"/><path d="M82.7,25.3c0.4,0.4,1,0.4,1.4,0c0.4-0.4,0.4-1,0-1.4l-6.9-6.9c0,0,0,0,0,0c-0.2-0.2-0.4-0.3-0.7-0.3s-0.5,0.1-0.7,0.3  c0,0,0,0,0,0l-6.9,6.9c-0.4,0.4-0.4,1,0,1.4c0.2,0.2,0.5,0.3,0.7,0.3c0.3,0,0.5-0.1,0.7-0.3l5.2-5.2v3l-6.6,6.6  c-0.4,0.4-0.4,1,0,1.4c0.4,0.4,1,0.4,1.4,0l5.2-5.2v3l-6.6,6.6c-0.4,0.4-0.4,1,0,1.4c0.2,0.2,0.5,0.3,0.7,0.3c0.3,0,0.5-0.1,0.7-0.3  l5.2-5.2v10.2c0,0.6,0.4,1,1,1s1-0.4,1-1V31.7l5.2,5.2c0.4,0.4,1,0.4,1.4,0c0.4-0.4,0.4-1,0-1.4l-6.6-6.6v-3l5.2,5.2  c0.2,0.2,0.5,0.3,0.7,0.3c0.3,0,0.5-0.1,0.7-0.3c0.4-0.4,0.4-1,0-1.4L77.5,23v-3L82.7,25.3z"/><path d="M59.2,25.3c0.2,0.2,0.5,0.3,0.7,0.3c0.3,0,0.5-0.1,0.7-0.3c0.4-0.4,0.4-1,0-1.4l-6.9-6.9c0,0,0,0,0,0  c-0.2-0.2-0.4-0.3-0.7-0.3s-0.5,0.1-0.7,0.3c0,0,0,0,0,0l-6.9,6.9c-0.4,0.4-0.4,1,0,1.4c0.4,0.4,1,0.4,1.4,0l5.2-5.2v3l-6.6,6.6  c-0.4,0.4-0.4,1,0,1.4c0.4,0.4,1,0.4,1.4,0l5.2-5.2v3l-6.6,6.6c-0.4,0.4-0.4,1,0,1.4c0.4,0.4,1,0.4,1.4,0l5.2-5.2v10.2  c0,0.6,0.4,1,1,1s1-0.4,1-1V31.7l5.2,5.2c0.2,0.2,0.5,0.3,0.7,0.3c0.3,0,0.5-0.1,0.7-0.3c0.4-0.4,0.4-1,0-1.4L54,28.8v-3l5.2,5.2  c0.2,0.2,0.5,0.3,0.7,0.3c0.3,0,0.5-0.1,0.7-0.3c0.4-0.4,0.4-1,0-1.4L54,23v-3L59.2,25.3z"/><path d="M21.4,86.9c0,0.6,0.4,1,1,1s1-0.4,1-1V76.7l5.2,5.2c0.2,0.2,0.5,0.3,0.7,0.3c0.3,0,0.5-0.1,0.7-0.3c0.4-0.4,0.4-1,0-1.4  l-6.6-6.6v-3l5.2,5.2c0.2,0.2,0.5,0.3,0.7,0.3c0.3,0,0.5-0.1,0.7-0.3c0.4-0.4,0.4-1,0-1.4l-6.6-6.6v-3l5.2,5.2  c0.2,0.2,0.5,0.3,0.7,0.3c0.3,0,0.5-0.1,0.7-0.3c0.4-0.4,0.4-1,0-1.4L23.1,62c0,0,0,0,0,0c-0.2-0.2-0.4-0.3-0.7-0.3  c-0.3,0-0.5,0.1-0.7,0.3l-6.9,6.9c-0.4,0.4-0.4,1,0,1.4c0.4,0.4,1,0.4,1.4,0l5.2-5.2v3l-6.6,6.6c-0.4,0.4-0.4,1,0,1.4  c0.4,0.4,1,0.4,1.4,0l5.2-5.2v3l-6.6,6.6c-0.4,0.4-0.4,1,0,1.4c0.4,0.4,1,0.4,1.4,0l5.2-5.2V86.9z"/><text x="0" y="115" fill="#000000" font-size="5px" font-weight="bold" font-family="'Helvetica Neue', Helvetica, Arial-Unicode, Arial, Sans-serif">Created by Made by Made</text><text x="0" y="120" fill="#000000" font-size="5px" font-weight="bold" font-family="'Helvetica Neue', Helvetica, Arial-Unicode, Arial, Sans-serif">from the Noun Project</text></svg>