<svg xmlns="http://www.w3.org/2000/svg" xmlns:xlink="http://www.w3.org/1999/xlink" version="1.1" x="0px" y="0px" viewBox="0 0 100 125" style="enable-background:new 0 0 100 100;" xml:space="preserve"><path d="M19,73.7c-0.8-0.5-1.6-0.9-2.5-1.1c-4.8-1.3-9.7,1.5-11,6.2c-1.3,4.8,1.5,9.7,6.2,11c4.8,1.3,9.7-1.5,11-6.2  c0.8-2.7,0.1-5.5-1.4-7.7l11.2-8.8c0.7-0.6,5.8-5.2,6.7-5.2l3.8,0c-0.6-0.8-2.4-3.3-5-6.7L19,73.7z M19.8,82.7  c-0.9,3.1-4.1,5-7.2,4.1c-3.1-0.9-5-4.1-4.1-7.2c0.9-3.1,4.1-5,7.2-4.1C18.8,76.3,20.6,79.6,19.8,82.7z M94.8,89l-0.6-2.6  c-2.5,0.6-5-1.3-5.8-2c0.7-1.7,0.8-3.7,0.3-5.6c-1.3-4.8-6.2-7.5-11-6.2c-0.9,0.3-1.8,0.6-2.5,1.1L54.9,53.9  c9.5-12.8,29.7-39.8,29.9-40.1c1.2-1.7-0.2-3.8-0.2-3.8L47.1,46.4L9.6,9.9c0,0-1.4,2.1-0.2,3.8c0.4,0.5,34.8,46.7,34.8,46.7  c0.6,0.9,1.7,1.4,2.7,1.4l8,0.1c1,0,6,4.5,6.7,5.2l11.2,8.8c-1.6,2.1-2.2,4.9-1.4,7.7c1.3,4.8,6.2,7.5,11,6.2c1.9-0.5,3.4-1.6,4.6-3  c1.2,0.9,3.5,2.4,6.2,2.4C93.8,89.1,94.3,89.1,94.8,89z M47.1,55.5c-0.9,0-1.6-0.7-1.6-1.6c0-0.9,0.7-1.6,1.6-1.6  c0.9,0,1.6,0.7,1.6,1.6C48.7,54.8,48,55.5,47.1,55.5z M81.7,86.8c-3.1,0.9-6.4-1-7.2-4.1c-0.9-3.1,1-6.4,4.1-7.2  c3.1-0.9,6.4,1,7.2,4.1C86.7,82.7,84.8,85.9,81.7,86.8z"/><text x="0" y="115" fill="#000000" font-size="5px" font-weight="bold" font-family="'Helvetica Neue', Helvetica, Arial-Unicode, Arial, Sans-serif">Created by Nicholas DePasquale</text><text x="0" y="120" fill="#000000" font-size="5px" font-weight="bold" font-family="'Helvetica Neue', Helvetica, Arial-Unicode, Arial, Sans-serif">from the Noun Project</text></svg>