<svg xmlns="http://www.w3.org/2000/svg" xmlns:xlink="http://www.w3.org/1999/xlink" version="1.1" x="0px" y="0px" viewBox="0 0 100 125" style="enable-background:new 0 0 100 100;" xml:space="preserve"><path d="M91,34.3c0-10-4.6-17.8-10.4-17.8s-10.4,7.8-10.4,17.8c0,9.4,4.1,16.9,9.4,17.7v10.3H62v-7.4c4-0.8,7-6.4,7-13.4  c0-7.6-3.5-13.5-8-13.5c-4.5,0-8,5.9-8,13.5c0,7,3,12.6,7,13.4v7.4h-5.2v-5.4c0-0.6-0.4-1-1-1H43.4v-2.2c0-1.7,1.2-3.1,2.7-3.1  s2.7,1.4,2.7,3.1c0,0.6,0.4,1,1,1s1-0.4,1-1c0-2.8-2.1-5.1-4.7-5.1c-1,0-1.9,0.4-2.7,0.9v-3.7c0-1.3,0.9-2.3,2.1-2.3  s2.1,1.1,2.1,2.3c0,0.6,0.4,1,1,1s1-0.4,1-1c0-2.4-1.8-4.3-4.1-4.3c-0.8,0-1.4,0.2-2.1,0.6v-2.7c0-0.8,0.6-1.5,1.3-1.5  s1.3,0.7,1.3,1.5c0,0.6,0.4,1,1,1s1-0.4,1-1c0-1.9-1.5-3.5-3.3-3.5c-0.9,0-1.7,0.4-2.3,1c-0.6-0.6-1.4-1-2.3-1  c-1.8,0-3.3,1.6-3.3,3.5c0,0.6,0.4,1,1,1s1-0.4,1-1c0-0.8,0.6-1.5,1.3-1.5c0.7,0,1.3,0.7,1.3,1.5v2.7c-0.6-0.4-1.3-0.6-2.1-0.6  c-2.2,0-4.1,2-4.1,4.3c0,0.6,0.4,1,1,1s1-0.4,1-1c0-1.3,0.9-2.3,2.1-2.3s2.1,1.1,2.1,2.3v3.7c-0.8-0.6-1.7-0.9-2.7-0.9  c-2.6,0-4.7,2.3-4.7,5.1c0,0.6,0.4,1,1,1s1-0.4,1-1c0-1.7,1.2-3.1,2.7-3.1s2.7,1.4,2.7,3.1v2.2H31.1c-0.6,0-1,0.4-1,1v5.4h-5.4V52  c5.3-0.7,9.4-7,9.4-14.7c0-8.2-4.7-14.8-10.4-14.8s-10.4,6.6-10.4,14.8c0,7.7,4.2,14,9.4,14.7v10.3h-8.6c-0.6,0-1,0.4-1,1s0.4,1,1,1  h75.1c0.6,0,1-0.4,1-1s-0.4-1-1-1h-7.5V52C87,51.2,91,43.7,91,34.3z M55,41.6c0-6.2,2.7-11.5,6-11.5c3.3,0,6,5.3,6,11.5  c0,5.6-2.2,10.4-5,11.3v-2.6c0.5-0.5,1.5-1.7,3.5-4.2c0.3-0.4,0.3-1.1-0.2-1.4c-0.4-0.3-1.1-0.3-1.4,0.2c-0.6,0.8-1.3,1.7-1.9,2.4  v-9.5c0-0.6-0.4-1-1-1s-1,0.4-1,1v5l-1.6-1.8c-0.4-0.4-1-0.5-1.4-0.1s-0.5,1-0.1,1.4l3.1,3.6v7C57.2,51.9,55,47.1,55,41.6z   M32.1,57.9h20.7v4.3H32.1V57.9z M15.3,37.3c0-7.1,3.8-12.8,8.4-12.8s8.4,5.7,8.4,12.8c0,6.5-3.3,11.9-7.4,12.7v-4.1  c0.7-0.6,2-2.1,4.8-5.7c0.3-0.4,0.3-1.1-0.2-1.4c-0.4-0.3-1.1-0.3-1.4,0.2c-1.1,1.4-2.3,2.9-3.2,4V29.1c0-0.6-0.4-1-1-1s-1,0.4-1,1  v7.7L20,33.6c-0.4-0.4-1-0.5-1.4-0.1c-0.4,0.4-0.5,1-0.1,1.4l4.3,4.9V50C18.5,49.3,15.3,43.9,15.3,37.3z M72.2,34.3  c0-8.6,3.9-15.8,8.4-15.8S89,25.7,89,34.3c0,7.9-3.3,14.7-7.4,15.7v-4.1c0.7-0.6,2-2.1,4.8-5.7c0.3-0.4,0.3-1.1-0.2-1.4  c-0.4-0.3-1.1-0.3-1.4,0.2c-1.1,1.4-2.3,2.9-3.2,4V29.1c0-0.6-0.4-1-1-1s-1,0.4-1,1v7.7l-2.8-3.2c-0.4-0.4-1-0.5-1.4-0.1  s-0.5,1-0.1,1.4l4.3,4.9V50C75.5,49,72.2,42.2,72.2,34.3z"/><path d="M46.4,19.5c0-2.2-1.8-4.1-4.1-4.1c-2.2,0-4.1,1.8-4.1,4.1c0,2.2,1.8,4.1,4.1,4.1C44.6,23.6,46.4,21.7,46.4,19.5z M42.3,21.6  c-1.1,0-2.1-0.9-2.1-2.1c0-1.1,0.9-2.1,2.1-2.1c1.1,0,2.1,0.9,2.1,2.1C44.4,20.6,43.5,21.6,42.3,21.6z"/><path d="M43.3,12.8v-2.4c0-0.6-0.4-1-1-1s-1,0.4-1,1v2.4c0,0.6,0.4,1,1,1S43.3,13.3,43.3,12.8z"/><path d="M39,14.7c0.2,0,0.3,0,0.5-0.1c0.5-0.3,0.6-0.9,0.4-1.4l-1.2-2.1c-0.3-0.5-0.9-0.6-1.4-0.4c-0.5,0.3-0.6,0.9-0.4,1.4l1.2,2.1  C38.3,14.5,38.6,14.7,39,14.7z"/><path d="M33.5,14.4c-0.3,0.5-0.1,1.1,0.4,1.4l2,1.2c0.2,0.1,0.3,0.1,0.5,0.1c0.3,0,0.7-0.2,0.9-0.5c0.3-0.5,0.1-1.1-0.4-1.4l-2-1.2  C34.4,13.8,33.8,14,33.5,14.4z"/><path d="M32.1,19.5c0,0.6,0.4,1,1,1l2.4,0c0,0,0,0,0,0c0.5,0,1-0.4,1-1c0-0.6-0.4-1-1-1l-2.4,0C32.6,18.5,32.1,18.9,32.1,19.5z"/><path d="M34.3,25.1c0.2,0,0.3,0,0.5-0.1l2.1-1.1c0.5-0.3,0.7-0.9,0.4-1.4c-0.3-0.5-0.9-0.7-1.4-0.4l-2.1,1.1  c-0.5,0.3-0.7,0.9-0.4,1.4C33.6,24.9,33.9,25.1,34.3,25.1z"/><path d="M37,28.3c0.2,0.1,0.3,0.1,0.5,0.1c0.3,0,0.7-0.2,0.9-0.5l1.2-2c0.3-0.5,0.1-1.1-0.3-1.4c-0.5-0.3-1.1-0.1-1.4,0.3l-1.2,2  C36.4,27.4,36.5,28.1,37,28.3z"/><path d="M41.1,26.4L41,28.8c0,0.6,0.4,1,1,1c0,0,0,0,0,0c0.5,0,1-0.4,1-1l0.1-2.4c0-0.6-0.4-1-1-1C41.6,25.5,41.1,25.9,41.1,26.4z"/><path d="M45.8,28.3c0.2,0.3,0.5,0.5,0.9,0.5c0.2,0,0.3,0,0.5-0.1c0.5-0.3,0.7-0.9,0.4-1.4l-1.1-2.1c-0.3-0.5-0.9-0.7-1.4-0.4  c-0.5,0.3-0.7,0.9-0.4,1.4L45.8,28.3z"/><path d="M50.1,25.6c0.3,0,0.7-0.2,0.8-0.5c0.3-0.5,0.2-1.1-0.3-1.4l-2-1.3c-0.5-0.3-1.1-0.2-1.4,0.3c-0.3,0.5-0.2,1.1,0.3,1.4l2,1.3  C49.7,25.5,49.9,25.6,50.1,25.6z"/><path d="M51.6,19.1L49.2,19c-0.5,0-1,0.4-1,0.9c0,0.6,0.4,1,0.9,1l2.4,0.1c0,0,0,0,0.1,0c0.5,0,1-0.4,1-0.9  C52.6,19.6,52.2,19.1,51.6,19.1z"/><path d="M50.1,14.6L48,15.7c-0.5,0.2-0.7,0.9-0.4,1.3c0.2,0.3,0.5,0.5,0.9,0.5c0.2,0,0.3,0,0.5-0.1l2.1-1.1c0.5-0.2,0.7-0.9,0.4-1.3  C51.2,14.5,50.6,14.3,50.1,14.6z"/><path d="M45.6,14.8c0.2,0.1,0.4,0.2,0.6,0.2c0.3,0,0.6-0.2,0.8-0.4l1.3-2c0.3-0.5,0.2-1.1-0.3-1.4c-0.5-0.3-1.1-0.2-1.4,0.3l-1.3,2  C45,13.8,45.1,14.5,45.6,14.8z"/><path d="M91.1,72.8c-1.9,0-2.9,0.6-3.8,1.1c-0.8,0.5-1.4,0.9-2.8,0.9c-1.4,0-2-0.4-2.8-0.9c-0.9-0.5-1.9-1.1-3.8-1.1  c-1.9,0-2.9,0.6-3.8,1.1c-0.8,0.5-1.4,0.9-2.8,0.9c-1.4,0-2-0.4-2.8-0.9c-0.9-0.5-1.9-1.1-3.8-1.1c-1.9,0-2.9,0.6-3.8,1.1  c-0.8,0.5-1.4,0.9-2.8,0.9c-1.4,0-2-0.4-2.8-0.9c-0.9-0.5-1.9-1.1-3.8-1.1c-1.9,0-2.9,0.6-3.8,1.1c-0.8,0.5-1.4,0.9-2.8,0.9  c-1.4,0-2-0.4-2.8-0.9c-0.9-0.5-1.9-1.1-3.8-1.1c-1.9,0-2.9,0.6-3.8,1.1c-0.8,0.5-1.4,0.9-2.8,0.9c-1.4,0-2-0.4-2.8-0.9  c-0.9-0.5-1.9-1.1-3.8-1.1c-1.9,0-2.9,0.6-3.8,1.1c-0.8,0.5-1.4,0.9-2.8,0.9s-2-0.4-2.8-0.9c-0.9-0.5-1.9-1.1-3.8-1.1  c-0.6,0-1,0.4-1,1s0.4,1,1,1c1.4,0,2,0.4,2.8,0.9c0.9,0.5,1.9,1.1,3.8,1.1s2.9-0.6,3.8-1.1c0.8-0.5,1.4-0.9,2.8-0.9  c1.4,0,2,0.4,2.8,0.9c0.9,0.5,1.9,1.1,3.8,1.1c1.9,0,2.9-0.6,3.8-1.1c0.8-0.5,1.4-0.9,2.8-0.9c1.4,0,2,0.4,2.8,0.9  c0.9,0.5,1.9,1.1,3.8,1.1c1.9,0,2.9-0.6,3.8-1.1c0.8-0.5,1.4-0.9,2.8-0.9c1.4,0,2,0.4,2.8,0.9c0.9,0.5,1.9,1.1,3.8,1.1  c1.9,0,2.9-0.6,3.8-1.1c0.8-0.5,1.4-0.9,2.8-0.9c1.4,0,2,0.4,2.8,0.9c0.9,0.5,1.9,1.1,3.8,1.1c1.9,0,2.9-0.6,3.8-1.1  c0.8-0.5,1.4-0.9,2.8-0.9c1.4,0,2,0.4,2.8,0.9c0.9,0.5,1.9,1.1,3.8,1.1c1.9,0,2.9-0.6,3.8-1.1c0.8-0.5,1.4-0.9,2.8-0.9  c0.6,0,1-0.4,1-1S91.7,72.8,91.1,72.8z"/><path d="M91.1,78.8c-1.9,0-2.9,0.6-3.8,1.1c-0.8,0.5-1.4,0.9-2.8,0.9c-1.4,0-2-0.4-2.8-0.9c-0.9-0.5-1.9-1.1-3.8-1.1  c-1.9,0-2.9,0.6-3.8,1.1c-0.8,0.5-1.4,0.9-2.8,0.9c-1.4,0-2-0.4-2.8-0.9c-0.9-0.5-1.9-1.1-3.8-1.1c-1.9,0-2.9,0.6-3.8,1.1  c-0.8,0.5-1.4,0.9-2.8,0.9c-1.4,0-2-0.4-2.8-0.9c-0.9-0.5-1.9-1.1-3.8-1.1c-1.9,0-2.9,0.6-3.8,1.1c-0.8,0.5-1.4,0.9-2.8,0.9  c-1.4,0-2-0.4-2.8-0.9c-0.9-0.5-1.9-1.1-3.8-1.1c-1.9,0-2.9,0.6-3.8,1.1c-0.8,0.5-1.4,0.9-2.8,0.9c-1.4,0-2-0.4-2.8-0.9  c-0.9-0.5-1.9-1.1-3.8-1.1c-1.9,0-2.9,0.6-3.8,1.1c-0.8,0.5-1.4,0.9-2.8,0.9s-2-0.4-2.8-0.9c-0.9-0.5-1.9-1.1-3.8-1.1  c-0.6,0-1,0.4-1,1s0.4,1,1,1c1.4,0,2,0.4,2.8,0.9c0.9,0.5,1.9,1.1,3.8,1.1s2.9-0.6,3.8-1.1c0.8-0.5,1.4-0.9,2.8-0.9  c1.4,0,2,0.4,2.8,0.9c0.9,0.5,1.9,1.1,3.8,1.1c1.9,0,2.9-0.6,3.8-1.1c0.8-0.5,1.4-0.9,2.8-0.9c1.4,0,2,0.4,2.8,0.9  c0.9,0.5,1.9,1.1,3.8,1.1c1.9,0,2.9-0.6,3.8-1.1c0.8-0.5,1.4-0.9,2.8-0.9c1.4,0,2,0.4,2.8,0.9c0.9,0.5,1.9,1.1,3.8,1.1  c1.9,0,2.9-0.6,3.8-1.1c0.8-0.5,1.4-0.9,2.8-0.9c1.4,0,2,0.4,2.8,0.9c0.9,0.5,1.9,1.1,3.8,1.1c1.9,0,2.9-0.6,3.8-1.1  c0.8-0.5,1.4-0.9,2.8-0.9c1.4,0,2,0.4,2.8,0.9c0.9,0.5,1.9,1.1,3.8,1.1c1.9,0,2.9-0.6,3.8-1.1c0.8-0.5,1.4-0.9,2.8-0.9  c0.6,0,1-0.4,1-1S91.7,78.8,91.1,78.8z"/><path d="M91.1,84.9c-1.9,0-2.9,0.6-3.8,1.1c-0.8,0.5-1.4,0.9-2.8,0.9c-1.4,0-2-0.4-2.8-0.9c-0.9-0.5-1.9-1.1-3.8-1.1  c-1.9,0-2.9,0.6-3.8,1.1c-0.8,0.5-1.4,0.9-2.8,0.9c-1.4,0-2-0.4-2.8-0.9c-0.9-0.5-1.9-1.1-3.8-1.1c-1.9,0-2.9,0.6-3.8,1.1  c-0.8,0.5-1.4,0.9-2.8,0.9c-1.4,0-2-0.4-2.8-0.9c-0.9-0.5-1.9-1.1-3.8-1.1c-1.9,0-2.9,0.6-3.8,1.1c-0.8,0.5-1.4,0.9-2.8,0.9  c-1.4,0-2-0.4-2.8-0.9c-0.9-0.5-1.9-1.1-3.8-1.1c-1.9,0-2.9,0.6-3.8,1.1c-0.8,0.5-1.4,0.9-2.8,0.9c-1.4,0-2-0.4-2.8-0.9  c-0.9-0.5-1.9-1.1-3.8-1.1c-1.9,0-2.9,0.6-3.8,1.1c-0.8,0.5-1.4,0.9-2.8,0.9s-2-0.4-2.8-0.9c-0.9-0.5-1.9-1.1-3.8-1.1  c-0.6,0-1,0.4-1,1s0.4,1,1,1c1.4,0,2,0.4,2.8,0.9c0.9,0.5,1.9,1.1,3.8,1.1s2.9-0.6,3.8-1.1c0.8-0.5,1.4-0.9,2.8-0.9  c1.4,0,2,0.4,2.8,0.9c0.9,0.5,1.9,1.1,3.8,1.1c1.9,0,2.9-0.6,3.8-1.1c0.8-0.5,1.4-0.9,2.8-0.9c1.4,0,2,0.4,2.8,0.9  c0.9,0.5,1.9,1.1,3.8,1.1c1.9,0,2.9-0.6,3.8-1.1c0.8-0.5,1.4-0.9,2.8-0.9c1.4,0,2,0.4,2.8,0.9c0.9,0.5,1.9,1.1,3.8,1.1  c1.9,0,2.9-0.6,3.8-1.1c0.8-0.5,1.4-0.9,2.8-0.9c1.4,0,2,0.4,2.8,0.9c0.9,0.5,1.9,1.1,3.8,1.1c1.9,0,2.9-0.6,3.8-1.1  c0.8-0.5,1.4-0.9,2.8-0.9c1.4,0,2,0.4,2.8,0.9c0.9,0.5,1.9,1.1,3.8,1.1c1.9,0,2.9-0.6,3.8-1.1c0.8-0.5,1.4-0.9,2.8-0.9  c0.6,0,1-0.4,1-1S91.7,84.9,91.1,84.9z"/><text x="0" y="115" fill="#000000" font-size="5px" font-weight="bold" font-family="'Helvetica Neue', Helvetica, Arial-Unicode, Arial, Sans-serif">Created by Made by Made</text><text x="0" y="120" fill="#000000" font-size="5px" font-weight="bold" font-family="'Helvetica Neue', Helvetica, Arial-Unicode, Arial, Sans-serif">from the Noun Project</text></svg>