<svg xmlns="http://www.w3.org/2000/svg" xmlns:xlink="http://www.w3.org/1999/xlink" version="1.1" x="0px" y="0px" viewBox="0 0 100 125" style="enable-background:new 0 0 100 100;" xml:space="preserve"><path d="M86.233,16.344c-0.734-3.076-3.505-5.312-6.729-5.312c-1.878,0-3.628,0.746-4.913,2.049  c-1.468-2.026-3.841-3.272-6.395-3.272c-4.158,0-7.577,3.23-7.877,7.313c-2.402,0.912-4.021,3.211-4.021,5.836  c0,3.447,2.804,6.251,6.251,6.251c1.482,0,2.891-0.524,4-1.452c1.396,2.862,4.317,4.746,7.602,4.746  c3.196,0,6.069-1.786,7.509-4.557c0.949,0.55,2.031,0.844,3.148,0.844c3.476,0,6.304-2.828,6.304-6.304  C91.111,19.512,89.062,16.993,86.233,16.344z M84.808,26.79c-1.077,0-2.107-0.401-2.9-1.128c-0.25-0.23-0.602-0.315-0.926-0.231  c-0.328,0.085-0.592,0.33-0.698,0.652c-0.883,2.645-3.348,4.421-6.133,4.421c-2.963,0-5.539-2.008-6.265-4.884  c-0.097-0.384-0.41-0.674-0.801-0.741c-0.057-0.01-0.113-0.015-0.169-0.015c-0.331,0-0.645,0.165-0.832,0.446  c-0.792,1.189-2.114,1.899-3.535,1.899c-2.344,0-4.251-1.907-4.251-4.251c0-1.964,1.334-3.661,3.244-4.125  c0.455-0.111,0.772-0.522,0.764-0.991l-0.008-0.135c0-3.252,2.646-5.898,5.898-5.898c2.3,0,4.404,1.355,5.361,3.454  c0.153,0.335,0.479,0.559,0.847,0.583c0.382,0.023,0.72-0.158,0.914-0.472c0.907-1.466,2.473-2.341,4.186-2.341  c2.474,0,4.571,1.851,4.88,4.305c0.058,0.46,0.425,0.82,0.886,0.869c2.19,0.233,3.842,2.073,3.842,4.279  C89.111,24.859,87.181,26.79,84.808,26.79z"/><path d="M13.06,88H11c-0.553,0-1,0.448-1,1s0.447,1,1,1h78c0.553,0,1-0.448,1-1s-0.447-1-1-1h-2.06  c-0.01-0.024-0.008-0.05-0.02-0.074l-36.026-71.75c-0.34-0.676-1.447-0.676-1.787,0l-6.544,13.033  c-0.721-0.576-1.562-1.013-2.502-1.229c-0.733-3.076-3.504-5.312-6.729-5.312c-1.878,0-3.629,0.746-4.913,2.049  c-1.468-2.026-3.842-3.273-6.395-3.273c-4.158,0-7.577,3.23-7.877,7.313c-2.402,0.912-4.021,3.211-4.021,5.836  c0,3.447,2.804,6.251,6.251,6.251c1.482,0,2.892-0.524,4-1.452c1.396,2.862,4.317,4.746,7.602,4.746  c3.196,0,6.069-1.786,7.509-4.558c0.485,0.281,1.007,0.493,1.549,0.635L13.08,87.926C13.068,87.95,13.07,87.976,13.06,88z   M15.281,88L37.39,43.968l3.437,4.664c0.377,0.512,1.234,0.51,1.609,0l3.375-4.582l3.376,4.582c0.188,0.256,0.487,0.407,0.805,0.407  s0.616-0.151,0.805-0.407l3.379-4.583l3.383,4.584c0.188,0.255,0.487,0.406,0.805,0.406s0.616-0.151,0.805-0.406l3.443-4.665  L84.719,88H15.281z M50,18.854l11.603,23.109l-3.241,4.391l-3.384-4.584c-0.188-0.255-0.487-0.406-0.805-0.406  c-0.318,0-0.616,0.151-0.805,0.407l-3.378,4.583l-3.376-4.583c-0.377-0.512-1.233-0.512-1.61,0l-3.374,4.582l-3.235-4.389  l0.786-1.565c3.221-0.279,5.757-2.985,5.757-6.276c0-1.211-0.354-2.337-0.948-3.302L50,18.854z M34.808,37.066  c-0.328,0.085-0.591,0.331-0.697,0.652c-0.883,2.645-3.347,4.422-6.133,4.422c-2.963,0-5.539-2.008-6.265-4.884  c-0.097-0.384-0.41-0.674-0.801-0.741c-0.057-0.01-0.113-0.015-0.169-0.015c-0.331,0-0.646,0.165-0.832,0.446  c-0.792,1.189-2.114,1.9-3.535,1.9c-2.344,0-4.251-1.907-4.251-4.251c0-1.964,1.334-3.661,3.244-4.125  c0.455-0.111,0.772-0.522,0.764-0.991l-0.008-0.135c0-3.252,2.646-5.898,5.898-5.898c2.299,0,4.404,1.356,5.363,3.454  c0.153,0.335,0.479,0.56,0.847,0.583c0.368,0.022,0.719-0.159,0.913-0.472c0.906-1.466,2.471-2.341,4.185-2.341  c2.475,0,4.572,1.851,4.88,4.305c0.058,0.46,0.425,0.821,0.886,0.87c2.191,0.234,3.843,2.073,3.843,4.278  c0,2.374-1.931,4.304-4.305,4.304c-1.077,0-2.106-0.401-2.9-1.128C35.484,37.068,35.135,36.981,34.808,37.066z"/><text x="0" y="115" fill="#000000" font-size="5px" font-weight="bold" font-family="'Helvetica Neue', Helvetica, Arial-Unicode, Arial, Sans-serif">Created by Made</text><text x="0" y="120" fill="#000000" font-size="5px" font-weight="bold" font-family="'Helvetica Neue', Helvetica, Arial-Unicode, Arial, Sans-serif">from the Noun Project</text></svg>