<svg xmlns="http://www.w3.org/2000/svg" xmlns:xlink="http://www.w3.org/1999/xlink" version="1.1" x="0px" y="0px" viewBox="0 0 100 125" enable-background="new 0 0 100 100" xml:space="preserve"><path fill="#000000" d="M50.001,31.224c-10.307,0-18.692,8.385-18.692,18.692c0,4.902,2.358,9.475,4.638,13.897  c2.229,4.324,4.335,8.408,4.335,12.668c0,1.533,0.469,2.901,1.368,4.048c0.365-0.286,0.809-0.531,1.32-0.745  c-0.669-0.788-1.197-1.864-1.197-3.302c0-4.622-2.288-9.06-4.501-13.351c-2.199-4.264-4.472-8.674-4.472-13.214  c0-9.485,7.717-17.202,17.201-17.202s17.201,7.717,17.201,17.202c0,4.54-2.274,8.95-4.472,13.214  c-2.213,4.292-4.501,8.73-4.501,13.351c0,0.009,0,0.019,0,0.028c0,1.122-0.783,2.09-1.879,2.328  c-1.555,0.338-3.761,0.635-5.55,0.862v-0.003c-0.028,0.004-0.056,0.008-0.084,0.012c-5.897,0.81-8.732,1.441-8.732,3.141  c-0.002,0.479,0.723,0.954,0.723,0.954c-0.243-0.187,0.431-0.725,0.758-0.94c0.937-0.615,4.722-1.302,7.335-1.661v0  c2.541-0.321,4.525-0.592,5.967-0.926c2.05-0.475,2.953-2.191,2.953-3.794c0-4.26,2.106-8.344,4.335-12.668  c2.28-4.422,4.638-8.995,4.638-13.897C68.693,39.609,60.308,31.224,50.001,31.224z"/><path fill="#000000" d="M50.799,84.773c-2.614,0.359-6.399,0.884-7.335,1.499c-0.327,0.215-1.001,0.752-0.758,0.94  c0,0-0.725-0.475-0.723-0.954c0-1.7,2.835-2.165,8.732-2.975c0.028-0.004,0.056-0.008,0.084-0.012h0  c2.614-0.359,6.399-0.884,7.335-1.499c0.327-0.215,1.001-0.752,0.758-0.94c0,0,0.725,0.475,0.723,0.954  c0,1.7-2.835,2.165-8.732,2.975C50.856,84.766,50.828,84.77,50.799,84.773z"/><path fill="#000000" d="M50.799,88.182c-2.614,0.359-6.399,0.884-7.335,1.499c-0.327,0.215-1.001,0.752-0.758,0.94  c0,0-0.725-0.475-0.723-0.954c0-1.7,2.835-2.165,8.732-2.975c0.028-0.004,0.056-0.008,0.084-0.012h0  c2.614-0.359,6.399-0.884,7.335-1.499c0.327-0.215,1.001-0.752,0.758-0.94c0,0,0.725,0.475,0.723,0.954  c0,1.7-2.835,2.165-8.732,2.975C50.856,88.175,50.828,88.179,50.799,88.182z"/><path fill="#000000" d="M90.859,53.961c-1.909,0-10.049-3.016-10.971-3.36c-0.291-0.109-0.485-0.387-0.485-0.698  c0-0.311,0.193-0.589,0.485-0.698c0.922-0.344,9.062-3.36,10.971-3.36c2.238,0,4.058,1.82,4.058,4.058  C94.917,52.141,93.096,53.961,90.859,53.961z M82.323,49.903c3.329,1.19,7.512,2.568,8.536,2.568c1.416,0,2.568-1.152,2.568-2.568  c0-1.416-1.152-2.568-2.568-2.568C89.835,47.335,85.652,48.713,82.323,49.903z"/><path fill="#000000" d="M71.31,29.335c-0.194,0-0.384-0.075-0.527-0.218c-0.22-0.22-0.28-0.553-0.151-0.836  c0.409-0.895,4.032-8.784,5.382-10.133c0.766-0.767,1.785-1.189,2.869-1.189c1.084,0,2.103,0.422,2.869,1.189  c1.582,1.582,1.582,4.157,0,5.739c-1.35,1.35-9.238,4.973-10.133,5.382C71.52,29.313,71.414,29.335,71.31,29.335z M78.883,18.448  c-0.686,0-1.331,0.267-1.816,0.752c-0.724,0.724-2.708,4.656-4.221,7.852c3.196-1.512,7.128-3.497,7.852-4.22  c1.001-1.001,1.001-2.63,0-3.631C80.213,18.715,79.569,18.448,78.883,18.448z"/><path fill="#000000" d="M49.988,20.514c-0.311,0-0.589-0.193-0.698-0.485c-0.344-0.922-3.36-9.062-3.36-10.971  C45.93,6.82,47.751,5,49.988,5c2.238,0,4.058,1.82,4.058,4.058c0,1.909-3.016,10.049-3.36,10.971  C50.578,20.321,50.299,20.514,49.988,20.514z M49.988,6.49c-1.416,0-2.568,1.152-2.568,2.568c0,1.024,1.377,5.207,2.568,8.536  c1.19-3.329,2.568-7.513,2.568-8.536C52.556,7.642,51.404,6.49,49.988,6.49z"/><path fill="#000000" d="M28.674,29.353c-0.105,0-0.21-0.022-0.309-0.067c-0.895-0.409-8.784-4.032-10.133-5.382  c-0.766-0.766-1.189-1.785-1.189-2.869c0-1.084,0.422-2.103,1.189-2.869c1.582-1.582,4.156-1.582,5.739,0  c1.35,1.35,4.973,9.238,5.382,10.133c0.129,0.283,0.069,0.617-0.151,0.836C29.058,29.277,28.868,29.353,28.674,29.353z   M21.101,18.468c-0.658,0-1.315,0.25-1.816,0.751c-0.485,0.485-0.752,1.13-0.752,1.816c0,0.686,0.267,1.331,0.752,1.815  c0.724,0.724,4.656,2.708,7.852,4.221c-1.512-3.196-3.497-7.128-4.22-7.852C22.416,18.718,21.758,18.468,21.101,18.468z"/><path fill="#000000" d="M9.143,53.987c-2.238,0-4.058-1.82-4.058-4.058c0-2.238,1.82-4.058,4.058-4.058  c1.909,0,10.049,3.016,10.971,3.36c0.292,0.109,0.485,0.387,0.485,0.698c0,0.311-0.193,0.589-0.485,0.698  C19.192,50.971,11.052,53.987,9.143,53.987z M9.143,47.361c-1.416,0-2.568,1.152-2.568,2.568c0,1.416,1.152,2.568,2.568,2.568  c1.024,0,5.207-1.377,8.536-2.568C14.35,48.739,10.167,47.361,9.143,47.361z"/><path fill="#000000" d="M52.331,92.1c-0.439,0.787-1.27,1.327-2.234,1.327s-1.794-0.54-2.234-1.327h-1.61  c0.528,1.628,2.041,2.817,3.843,2.817c1.802,0,3.316-1.189,3.844-2.817H52.331z"/><text x="0" y="115" fill="#000000" font-size="5px" font-weight="bold" font-family="'Helvetica Neue', Helvetica, Arial-Unicode, Arial, Sans-serif">Created by Pascal Conil-lacoste</text><text x="0" y="120" fill="#000000" font-size="5px" font-weight="bold" font-family="'Helvetica Neue', Helvetica, Arial-Unicode, Arial, Sans-serif">from the Noun Project</text></svg>