<svg xmlns="http://www.w3.org/2000/svg" xmlns:xlink="http://www.w3.org/1999/xlink" version="1.1" x="0px" y="0px" viewBox="0 0 96 120.00125" enable-background="new 0 0 96 96.001" xml:space="preserve"><g><path d="M78.606,42.022c-0.025-0.001-0.049,0.001-0.072,0.004l-10.23-5.011c0.008-0.227,0.012-0.455,0.012-0.684   c0-3.302-0.832-6.646-2.422-6.646c-1.324,0-2.123,2.317-2.354,4.997l-8.33-4.078c-0.043-15.4-3.902-20.875-7.211-20.875   s-7.17,5.475-7.211,20.875l-8.33,4.078c-0.23-2.681-1.029-4.997-2.354-4.997c-1.59,0-2.422,3.345-2.422,6.646   c0,0.229,0.004,0.457,0.012,0.684l-10.238,5.014c-1.357,0.115-3.783,1.016-3.783,3.698V61.66c0,0.198,0.141,0.369,0.336,0.407   c0.193,0.037,0.389-0.069,0.461-0.254l1.357-3.405l1.355,3.405c0.063,0.159,0.217,0.261,0.383,0.261   c0.027,0,0.053-0.003,0.08-0.007c0.193-0.038,0.334-0.209,0.334-0.407v-8.062l21.828-5.847l-0.313,22.079l-7.709,3.934   c-0.139,0.069-0.227,0.213-0.227,0.369l0.021,7.182c0,0.131,0.063,0.255,0.168,0.332c0.104,0.078,0.24,0.102,0.365,0.063   l12.547-3.846h0.916c0.037,3.228,0.867,6.424,2.422,6.424s2.385-3.196,2.422-6.424h0.916l12.547,3.846   c0.039,0.013,0.08,0.019,0.121,0.019c0.086,0,0.174-0.027,0.244-0.081c0.105-0.077,0.168-0.201,0.168-0.332l0.02-7.182   c0.002-0.156-0.086-0.3-0.225-0.369l-7.709-3.934L56.19,47.752l21.977,5.888v8.021c0,0.198,0.141,0.369,0.336,0.407   c0.195,0.037,0.389-0.069,0.461-0.254l1.357-3.405l1.355,3.405c0.064,0.159,0.219,0.261,0.385,0.261   c0.025,0,0.053-0.003,0.078-0.007c0.195-0.038,0.336-0.209,0.336-0.407V45.728C82.476,42.987,79.944,42.105,78.606,42.022z    M17.153,53.28v6.225l-0.941-2.367c-0.064-0.157-0.215-0.262-0.385-0.262s-0.322,0.104-0.385,0.262l-0.943,2.367V45.728   c0-2.058,1.799-2.651,2.654-2.817V53.28z M65.894,30.514c0.65,0,1.596,2.267,1.596,5.818c0,0.096,0,0.189-0.002,0.284l-3.15-1.542   C64.526,32.254,65.321,30.514,65.894,30.514z M30.104,30.514c0.572,0,1.367,1.74,1.555,4.561l-3.148,1.542   c0-0.095-0.002-0.188-0.002-0.284C28.509,32.78,29.454,30.514,30.104,30.514z M49.593,77.864c-0.037,3.424-0.957,5.597-1.594,5.597   s-1.557-2.173-1.594-5.597c0-0.074-0.004-0.146-0.004-0.222c0-0.207,0.006-0.407,0.012-0.606c0.1-3.201,0.973-5.211,1.586-5.211   s1.486,2.01,1.586,5.211c0.006,0.199,0.01,0.399,0.01,0.606C49.595,77.718,49.593,77.79,49.593,77.864z M78.019,52.742   l-22.143-5.931c-0.125-0.033-0.258-0.007-0.361,0.073c-0.102,0.079-0.16,0.202-0.158,0.332l0.322,22.874   c0.002,0.153,0.09,0.293,0.227,0.362l7.705,3.932l-0.018,6.372l-12.074-3.701c-0.039-0.013-0.08-0.02-0.121-0.02h-0.984   c-0.096-3.092-0.92-6.039-2.414-6.039s-2.318,2.947-2.414,6.039h-0.986c-0.041,0-0.082,0.007-0.121,0.02l-12.072,3.701   l-0.018-6.372l7.705-3.932c0.137-0.069,0.225-0.209,0.227-0.362l0.322-22.874c0.002-0.13-0.057-0.253-0.158-0.332   c-0.104-0.08-0.236-0.106-0.361-0.073l-22.143,5.931v-10.05l9.768-4.781l0.799-0.392l3.15-1.544l0.816-0.398l8.869-4.345   c0.143-0.068,0.232-0.213,0.232-0.37c0-6.971,0.803-12.555,2.32-16.148c1.588-3.753,3.371-4.158,4.064-4.158   s2.477,0.405,4.063,4.158c1.52,3.594,2.322,9.178,2.322,16.148c0,0.157,0.09,0.302,0.23,0.37l8.871,4.345l0.816,0.398l3.148,1.544   l0.801,0.392l9.768,4.781V52.742z M81.647,59.505l-0.943-2.367c-0.061-0.157-0.215-0.262-0.383-0.262   c-0.17,0-0.322,0.104-0.385,0.262l-0.941,2.367V42.91c0.855,0.166,2.652,0.76,2.652,2.817V59.505z"/><path d="M28.585,53.557c-0.229,0-0.414,0.185-0.414,0.413v4.369c0,0.229,0.186,0.414,0.414,0.414s0.412-0.185,0.412-0.414V53.97   C28.997,53.741,28.813,53.557,28.585,53.557z"/><path d="M23.95,53.557c-0.227,0-0.412,0.185-0.412,0.413v8.739c0,0.229,0.186,0.413,0.412,0.413c0.229,0,0.414-0.184,0.414-0.413   V53.97C24.364,53.741,24.179,53.557,23.95,53.557z"/><path d="M33.53,60.707v-8.741c0-0.229-0.186-0.413-0.412-0.413c-0.23,0-0.414,0.185-0.414,0.413v8.741   c0,0.228,0.184,0.413,0.414,0.413C33.345,61.12,33.53,60.935,33.53,60.707z"/><path d="M67.413,53.557c-0.229,0-0.412,0.185-0.412,0.413v4.369c0,0.229,0.184,0.414,0.412,0.414s0.414-0.185,0.414-0.414V53.97   C67.827,53.741,67.642,53.557,67.413,53.557z"/><path d="M72.048,53.557c-0.23,0-0.414,0.185-0.414,0.413v8.739c0,0.229,0.184,0.413,0.414,0.413c0.227,0,0.412-0.184,0.412-0.413   V53.97C72.46,53.741,72.274,53.557,72.048,53.557z"/><path d="M62.468,51.966v8.741c0,0.228,0.186,0.413,0.412,0.413c0.229,0,0.414-0.186,0.414-0.413v-8.741   c0-0.229-0.186-0.413-0.414-0.413C62.653,51.553,62.468,51.737,62.468,51.966z"/><path d="M47.999,85.971c-0.229,0-0.414,0.185-0.414,0.413v4.37c0,0.229,0.186,0.414,0.414,0.414s0.412-0.186,0.412-0.414v-4.37   C48.411,86.155,48.228,85.971,47.999,85.971z"/><path d="M43.866,80.901c-0.229,0-0.414,0.187-0.414,0.413v7.255c0,0.228,0.186,0.413,0.414,0.413s0.414-0.186,0.414-0.413v-7.255   C44.28,81.088,44.095,80.901,43.866,80.901z"/><path d="M40.04,81.924c-0.229,0-0.414,0.184-0.414,0.413v4.612c0,0.229,0.186,0.415,0.414,0.415s0.414-0.187,0.414-0.415v-4.612   C40.454,82.107,40.269,81.924,40.04,81.924z"/><path d="M36.229,83.003c-0.229,0-0.412,0.186-0.412,0.414v7.984c0,0.229,0.184,0.413,0.412,0.413s0.414-0.185,0.414-0.413v-7.984   C36.644,83.188,36.458,83.003,36.229,83.003z"/><path d="M52.132,80.901c-0.229,0-0.414,0.187-0.414,0.413v7.255c0,0.228,0.186,0.413,0.414,0.413s0.412-0.186,0.412-0.413v-7.255   C52.544,81.088,52.36,80.901,52.132,80.901z"/><path d="M55.958,81.924c-0.229,0-0.414,0.184-0.414,0.413v4.612c0,0.229,0.186,0.415,0.414,0.415s0.414-0.187,0.414-0.415v-4.612   C56.372,82.107,56.187,81.924,55.958,81.924z"/><path d="M59.769,83.003c-0.229,0-0.414,0.186-0.414,0.414v7.984c0,0.229,0.186,0.413,0.414,0.413s0.412-0.185,0.412-0.413v-7.984   C60.181,83.188,59.997,83.003,59.769,83.003z"/><path d="M14.507,26.498c0.543,0.016,1.07-0.071,1.572-0.255c0.479-0.176,0.916-0.434,1.303-0.768   c0.977,0.404,2.086,0.431,3.078,0.066c0.91-0.333,1.664-0.957,2.16-1.776c0.596,0.301,1.25,0.459,1.916,0.459h0.002   c0.494,0,0.984-0.086,1.453-0.259c2.191-0.805,3.322-3.243,2.518-5.437c-0.492-1.345-1.639-2.347-3.025-2.668   c-0.027-0.093-0.055-0.179-0.086-0.264c-0.609-1.662-2.209-2.779-3.979-2.779c-0.496,0-0.986,0.088-1.457,0.261   c-0.131,0.048-0.258,0.102-0.385,0.164c-0.797-0.893-1.955-1.417-3.16-1.417c-0.496,0-0.988,0.086-1.459,0.261   c-0.254,0.093-0.502,0.212-0.742,0.36c-1.014-0.473-2.195-0.528-3.248-0.142c-1.646,0.603-2.738,2.144-2.775,3.879   C7.313,16.794,6.7,17.72,6.472,18.771c-1.781,1.019-2.584,3.187-1.871,5.134c0.393,1.07,1.209,1.94,2.252,2.405   c0.678,1.541,2.18,2.525,3.875,2.525c0.496,0,0.986-0.086,1.457-0.259C13.192,28.207,14.026,27.458,14.507,26.498z M11.899,27.802   c-0.379,0.139-0.773,0.208-1.172,0.208c-1.389,0-2.666-0.87-3.174-2.165c-0.041-0.106-0.125-0.19-0.232-0.233   c-0.904-0.359-1.611-1.085-1.945-1.991c-0.594-1.618,0.117-3.429,1.652-4.209c0.117-0.059,0.199-0.172,0.221-0.302   c0.162-0.978,0.734-1.834,1.574-2.35c0.125-0.077,0.201-0.218,0.197-0.365c-0.049-1.475,0.848-2.806,2.232-3.313   c0.375-0.137,0.77-0.208,1.166-0.208c0.563,0,1.127,0.143,1.627,0.414c0.137,0.074,0.305,0.065,0.432-0.023   c0.248-0.17,0.504-0.307,0.768-0.401c0.377-0.139,0.771-0.209,1.172-0.209c1.066,0,2.086,0.509,2.727,1.363   c0.127,0.168,0.359,0.215,0.541,0.108c0.189-0.112,0.373-0.201,0.561-0.27c0.381-0.14,0.775-0.209,1.174-0.209   c1.426,0,2.711,0.899,3.203,2.236c0.045,0.123,0.084,0.259,0.121,0.425c0.037,0.164,0.17,0.289,0.336,0.316   c1.215,0.199,2.232,1.038,2.654,2.189c0.646,1.766-0.264,3.729-2.027,4.376c-0.377,0.138-0.77,0.208-1.168,0.208h-0.002   c-0.654,0-1.297-0.189-1.855-0.55c-0.1-0.065-0.223-0.083-0.338-0.051c-0.113,0.033-0.209,0.114-0.26,0.222   c-0.385,0.816-1.063,1.437-1.908,1.747c-0.871,0.32-1.855,0.264-2.689-0.149c-0.158-0.079-0.348-0.048-0.473,0.075   c-0.352,0.348-0.762,0.608-1.219,0.775c-0.479,0.175-0.99,0.239-1.502,0.189c-0.182-0.018-0.354,0.084-0.422,0.252   C13.497,26.799,12.798,27.471,11.899,27.802z"/><path d="M67.05,18.774c-0.021,0.468,0.051,0.938,0.213,1.38c0.508,1.385,1.84,2.314,3.314,2.314c0.414,0,0.822-0.071,1.215-0.216   c1.092-0.4,1.904-1.304,2.197-2.411c0.127,0.015,0.254,0.021,0.383,0.021c0.412,0,0.818-0.072,1.209-0.216   c1.369-0.502,2.287-1.813,2.313-3.254c1.609-0.78,2.404-2.687,1.777-4.393c-0.102-0.281-0.244-0.552-0.42-0.804   c-0.006-0.016-0.01-0.031-0.016-0.045c-0.271-0.741-0.777-1.36-1.443-1.775c0.113-0.45,0.135-0.922,0.063-1.383   C77.593,6.286,76.095,5,74.37,5c-0.18,0-0.361,0.014-0.541,0.041c-0.254,0.04-0.502,0.105-0.74,0.198   c-0.662-0.673-1.563-1.053-2.516-1.053c-0.414,0-0.822,0.071-1.213,0.216c-0.885,0.324-1.59,0.975-1.986,1.83   c-0.396,0.856-0.436,1.814-0.111,2.7c0.182,0.493,0.465,0.932,0.836,1.295c-0.787,0.496-1.359,1.293-1.566,2.211   c-1.465,0.856-2.121,2.65-1.531,4.261C65.353,17.655,66.104,18.411,67.05,18.774z M67.087,13.078   c0.117-0.06,0.199-0.172,0.221-0.302c0.156-0.941,0.807-1.739,1.695-2.081c0.145-0.056,0.244-0.188,0.262-0.341   c0.016-0.153-0.053-0.304-0.182-0.39c-0.484-0.321-0.846-0.776-1.043-1.317c-0.25-0.678-0.221-1.412,0.084-2.067   c0.305-0.656,0.844-1.153,1.521-1.401c0.301-0.109,0.613-0.166,0.928-0.166c0.811,0,1.572,0.361,2.088,0.988   c0.123,0.149,0.332,0.193,0.504,0.108c0.25-0.124,0.516-0.208,0.789-0.251c0.139-0.021,0.277-0.031,0.416-0.031   c1.318,0,2.467,0.985,2.668,2.293c0.068,0.441,0.023,0.896-0.125,1.316c-0.07,0.197,0.018,0.417,0.207,0.51   c0.623,0.31,1.1,0.839,1.338,1.489l0.008,0.022c0.006,0.019,0.01,0.035,0.016,0.053c0.014,0.04,0.033,0.078,0.059,0.112   c0.15,0.208,0.27,0.431,0.355,0.662c0.504,1.378-0.199,2.925-1.57,3.452c-0.168,0.064-0.277,0.232-0.264,0.413   c0.08,1.191-0.645,2.31-1.764,2.72c-0.299,0.109-0.611,0.165-0.926,0.165l0,0c-0.207,0-0.412-0.023-0.615-0.069   c-0.113-0.027-0.232-0.005-0.328,0.062c-0.096,0.065-0.16,0.167-0.176,0.284c-0.139,0.991-0.807,1.82-1.746,2.165   c-0.299,0.11-0.613,0.166-0.93,0.166c-1.129,0-2.148-0.713-2.537-1.773c-0.156-0.422-0.205-0.879-0.139-1.322   c0.031-0.206-0.098-0.403-0.299-0.459c-0.844-0.231-1.525-0.857-1.824-1.674C65.308,15.132,65.87,13.697,67.087,13.078z"/><path d="M91.44,25.275c-0.293-0.802-0.869-1.466-1.615-1.875c0.328-0.809,0.348-1.712,0.045-2.538   c-0.508-1.385-1.84-2.315-3.314-2.315c-0.414,0-0.822,0.073-1.215,0.217c-0.885,0.325-1.59,0.975-1.986,1.83   c-0.383,0.821-0.434,1.737-0.15,2.592c-0.418,0.604-0.637,1.314-0.629,2.046c-1.494,0.834-2.193,2.666-1.594,4.296   c0.188,0.515,0.492,0.975,0.885,1.348c-0.719,0.354-1.289,0.938-1.629,1.676c-0.396,0.856-0.438,1.815-0.113,2.7   c0.506,1.376,1.824,2.303,3.289,2.314c0.666,0.784,1.656,1.246,2.686,1.246c0,0,0,0,0.002,0c0.178,0,0.359-0.014,0.537-0.041   c1.926-0.296,3.25-2.102,2.953-4.024c-0.029-0.194-0.076-0.387-0.141-0.577c1.17-0.942,1.617-2.522,1.092-3.955   c-0.105-0.289-0.248-0.559-0.422-0.809C91.44,28.509,92.007,26.818,91.44,25.275z M89.313,28.919   c-0.117,0.058-0.201,0.169-0.225,0.299c-0.023,0.128,0.016,0.261,0.105,0.357c0.252,0.267,0.445,0.578,0.57,0.924   c0.434,1.178,0.004,2.485-1.041,3.181c-0.17,0.11-0.232,0.326-0.15,0.511c0.098,0.225,0.166,0.452,0.201,0.681   c0.227,1.473-0.789,2.854-2.262,3.082c-0.137,0.021-0.275,0.032-0.412,0.032h-0.002c-0.844,0-1.652-0.406-2.162-1.086   c-0.076-0.104-0.199-0.166-0.33-0.166c-0.008,0-0.016,0.001-0.021,0.001c-1.184,0.063-2.279-0.663-2.684-1.768   c-0.25-0.679-0.219-1.413,0.086-2.068c0.303-0.654,0.844-1.152,1.52-1.4c0.092-0.034,0.193-0.064,0.313-0.092   c0.166-0.04,0.289-0.174,0.314-0.341c0.025-0.168-0.057-0.334-0.201-0.419c-0.541-0.315-0.959-0.814-1.176-1.403   c-0.482-1.318,0.139-2.807,1.416-3.388c0.16-0.072,0.258-0.239,0.24-0.414c-0.064-0.697,0.143-1.384,0.582-1.935   c0.094-0.116,0.117-0.274,0.061-0.413l-0.023-0.054c-0.006-0.011-0.01-0.021-0.014-0.031c-0.248-0.678-0.219-1.412,0.086-2.067   c0.303-0.654,0.844-1.151,1.521-1.402c0.299-0.109,0.613-0.165,0.93-0.165c1.129,0,2.148,0.713,2.539,1.773   c0.27,0.738,0.203,1.558-0.182,2.248c-0.057,0.104-0.068,0.228-0.029,0.34c0.041,0.113,0.127,0.201,0.238,0.246   c0.717,0.284,1.279,0.86,1.543,1.578C91.144,26.867,90.563,28.312,89.313,28.919z"/></g><text x="0" y="111.001" fill="#000000" font-size="5px" font-weight="bold" font-family="'Helvetica Neue', Helvetica, Arial-Unicode, Arial, Sans-serif">Created by faisalovers</text><text x="0" y="116.001" fill="#000000" font-size="5px" font-weight="bold" font-family="'Helvetica Neue', Helvetica, Arial-Unicode, Arial, Sans-serif">from the Noun Project</text></svg>