<svg xmlns="http://www.w3.org/2000/svg" xmlns:xlink="http://www.w3.org/1999/xlink" version="1.1" x="0px" y="0px" viewBox="0 0 100 125" style="enable-background:new 0 0 100 100;" xml:space="preserve"><style type="text/css">
	.st0{fill-rule:evenodd;clip-rule:evenodd;}
</style><path class="st0" d="M89.2,60.8c0,21.6-17.5,39.2-39.2,39.2S10.8,82.4,10.8,60.8c0-14.1,7.5-26.5,18.8-33.4l-1.5-2.6L27.7,25  c-0.5,0.3-1.1,0.1-1.3-0.4l-2.9-5.1c-0.3-0.5-0.1-1.1,0.4-1.3l2.5-1.5c0.5-0.3,1.1-0.1,1.3,0.4l2.9,5.1c0.3,0.5,0.1,1.1-0.4,1.3  l-0.4,0.2l1.5,2.6c4.9-2.7,10.4-4.3,16.3-4.7v-2.4c-4.2-1.1-7.3-4.9-7.3-9.5c0-5.4,4.4-9.8,9.8-9.8s9.8,4.4,9.8,9.8  c0,4.6-3.1,8.4-7.3,9.5v2.4c5.9,0.4,11.4,2,16.3,4.7l1.5-2.6l-0.4-0.2c-0.5-0.3-0.6-0.9-0.4-1.3l2.9-5.1c0.3-0.5,0.9-0.6,1.3-0.4  l2.5,1.5c0.5,0.3,0.6,0.9,0.4,1.3l-2.9,5.1c-0.3,0.5-0.9,0.6-1.3,0.4l-0.4-0.2l-1.5,2.6C81.7,34.2,89.2,46.6,89.2,60.8z M57.8,9.9  C57.8,5.5,54.3,2,50,2s-7.8,3.5-7.8,7.8c0,3.5,2.3,6.4,5.4,7.4v-3h-1.5c-0.5,0-1-0.4-1-1v-2.9c0-0.5,0.4-1,1-1h7.8c0.5,0,1,0.4,1,1  v2.9c0,0.5-0.4,1-1,1h-1.5v3C55.6,16.3,57.8,13.3,57.8,9.9z M50,26.5c-18.9,0-34.3,15.3-34.3,34.3S31.1,95,50,95  s34.3-15.3,34.3-34.3S68.9,26.5,50,26.5z M81.3,61.7h-2c-0.5,0-1-0.4-1-1s0.4-1,1-1h2c0.5,0,1,0.4,1,1S81.9,61.7,81.3,61.7z   M76.6,77.3l-1.7-1c-0.5-0.3-0.6-0.9-0.4-1.3c0.3-0.5,0.9-0.6,1.3-0.4l1.7,1c0.5,0.3,0.6,0.9,0.4,1.3C77.7,77.4,77.1,77.6,76.6,77.3  z M77.6,46l-1.7,1c-0.5,0.3-1.1,0.1-1.3-0.4c-0.3-0.5-0.1-1.1,0.4-1.3l1.7-1c0.5-0.3,1.1-0.1,1.3,0.4C78.3,45.1,78.1,45.7,77.6,46z   M66.2,88.8c-0.5,0.3-1.1,0.1-1.3-0.4l-1-1.7c-0.3-0.5-0.1-1.1,0.4-1.3c0.5-0.3,1.1-0.1,1.3,0.4l1,1.7  C66.8,87.9,66.6,88.5,66.2,88.8z M65.5,35.8c-0.3,0.5-0.9,0.6-1.3,0.4c-0.5-0.3-0.6-0.9-0.4-1.3l1-1.7c0.3-0.5,0.9-0.6,1.3-0.4  c0.5,0.3,0.6,0.9,0.4,1.3L65.5,35.8z M51.6,58.9c0.5,0.4,0.8,1.1,0.8,1.8c0,1-0.6,1.9-1.5,2.2v1.2c0,0.5-0.4,1-1,1s-1-0.4-1-1V63  c-0.9-0.4-1.5-1.2-1.5-2.2s0.6-1.9,1.5-2.2V37.3c0-0.5,0.4-1,1-1s1,0.4,1,1v20.8l9.1-15.8c0.1-0.2,0.4-0.3,0.7-0.2  c0.2,0.1,0.3,0.4,0.2,0.7C60.9,42.8,51.6,58.9,51.6,58.9z M49,60.8c0,0.5,0.4,1,1,1s1-0.4,1-1s-0.4-1-1-1S49,60.2,49,60.8z M50,32.4  c-0.5,0-1-0.4-1-1v-2c0-0.5,0.4-1,1-1s1,0.4,1,1v2C51,31.9,50.5,32.4,50,32.4z M35.2,88.4c-0.3,0.5-0.9,0.6-1.3,0.4  c-0.5-0.3-0.6-0.9-0.4-1.3l1-1.7c0.3-0.5,0.9-0.6,1.3-0.4c0.5,0.3,0.6,0.9,0.4,1.3L35.2,88.4z M35.8,36.2c-0.5,0.3-1.1,0.1-1.3-0.4  l-1-1.7c-0.3-0.5-0.1-1.1,0.4-1.3c0.5-0.3,1.1-0.1,1.3,0.4l1,1.7C36.4,35.3,36.3,35.9,35.8,36.2z M25.1,76.3l-1.7,1  c-0.5,0.3-1.1,0.1-1.3-0.4c-0.3-0.5-0.1-1.1,0.4-1.3l1.7-1c0.5-0.3,1.1-0.1,1.3,0.4C25.7,75.4,25.5,76,25.1,76.3z M24.1,46.9l-1.7-1  c-0.5-0.3-0.6-0.9-0.4-1.3c0.3-0.5,0.9-0.6,1.3-0.4l1.7,1c0.5,0.3,0.6,0.9,0.4,1.3C25.1,47,24.5,47.2,24.1,46.9z M20.6,61.7h-2  c-0.5,0-1-0.4-1-1s0.4-1,1-1h2c0.5,0,1,0.4,1,1S21.2,61.7,20.6,61.7z M50,89.2c0.5,0,1,0.4,1,1v2c0,0.5-0.4,1-1,1s-1-0.4-1-1v-2  C49,89.6,49.5,89.2,50,89.2z"/><text x="0" y="115" fill="#000000" font-size="5px" font-weight="bold" font-family="'Helvetica Neue', Helvetica, Arial-Unicode, Arial, Sans-serif">Created by Anusha Narvekar</text><text x="0" y="120" fill="#000000" font-size="5px" font-weight="bold" font-family="'Helvetica Neue', Helvetica, Arial-Unicode, Arial, Sans-serif">from the Noun Project</text></svg>