<svg xmlns="http://www.w3.org/2000/svg" xmlns:xlink="http://www.w3.org/1999/xlink" version="1.1" x="0px" y="0px" viewBox="0 0 100 125" style="enable-background:new 0 0 100 100;" xml:space="preserve"><path d="M77,6.2l-6.8,6.8c-0.4-0.1-0.8-0.3-1.2-0.4c-4.1-1.1-7.6-0.5-9.8,1.7l-45,45c-2.5,2.5-2.9,6.6-1.3,11.1L6.2,77  c-2.5,2.5-0.8,8,4,12.8c3.3,3.3,6.9,5.1,9.7,5.1c1.3,0,2.3-0.4,3.1-1.2l6.8-6.8c0.4,0.1,0.8,0.3,1.2,0.4c1.4,0.4,2.6,0.6,3.8,0.6  c2.4,0,4.5-0.8,6-2.3l45-45c2.5-2.5,2.9-6.6,1.3-11.1l6.7-6.7c2.5-2.5,0.8-8-4-12.8C85.1,5.3,79.6,3.6,77,6.2z M59.6,26.2  c1.5,8.9,6.5,16.1,13.1,19.5c-0.9,0-1.7-0.1-2.6-0.2C63.2,41.2,59,32.7,58.6,23.3C58.9,24.2,59.2,25.2,59.6,26.2z M57.1,19.9  l0.4-0.4c-0.7,10.3,3.1,20.1,10,25.6c-0.9-0.2-1.7-0.4-2.6-0.6C58.9,38.7,56,29.6,57.1,19.9z M55.3,21.7l0.4-0.4  c-0.6,8.6,1.8,16.7,6.8,22.5c-0.8-0.3-1.5-0.6-2.3-0.9C56.2,37.1,54.4,29.5,55.3,21.7z M53.5,23.5l0.4-0.4c-0.5,6.7,1,13.3,4.1,18.6  c-0.7-0.4-1.3-0.8-1.9-1.2C53.7,35.4,52.9,29.5,53.5,23.5z M51.8,25.3l0.4-0.4c-0.4,4.9,0.3,9.7,1.9,14.1c-0.5-0.4-1-0.9-1.5-1.4  C51.6,33.6,51.3,29.5,51.8,25.3z M50,27l0.4-0.4c-0.2,3-0.1,6,0.5,8.9c-0.3-0.5-0.7-0.9-1-1.4C49.7,31.8,49.7,29.4,50,27z   M48.6,28.4c-0.1,1-0.1,2.1-0.1,3.1c-0.3-0.7-0.6-1.5-0.8-2.2L48.6,28.4z M43.4,33.6l0.4-0.4c-0.8,12.1,4.6,23.3,13.5,28  c-0.9,0-1.7-0.1-2.6-0.2C46.5,55.9,42.1,45,43.4,33.6z M41.6,35.4L42,35c-0.7,10.3,3.1,20.1,10,25.6c-0.9-0.2-1.7-0.4-2.6-0.6  C43.4,54.1,40.5,45,41.6,35.4z M39.8,37.2l0.4-0.4c-0.6,8.6,1.8,16.7,6.8,22.5c-0.8-0.3-1.5-0.6-2.3-0.9  C40.7,52.6,39,44.9,39.8,37.2z M38.1,38.9l0.4-0.4c-0.5,6.7,1,13.3,4.1,18.6c-0.7-0.4-1.3-0.8-1.9-1.2C38.3,50.8,37.4,45,38.1,38.9z   M36.3,40.7l0.4-0.4c-0.4,4.9,0.3,9.7,1.9,14.1c-0.5-0.4-1-0.9-1.5-1.4C36.1,49.1,35.8,45,36.3,40.7z M34.5,42.5l0.4-0.4  c-0.2,3-0.1,6,0.5,8.9c-0.3-0.5-0.7-0.9-1-1.4C34.2,47.3,34.3,44.9,34.5,42.5z M33.2,43.9c-0.1,1-0.1,2.1-0.1,3.1  c-0.3-0.7-0.6-1.5-0.8-2.2L33.2,43.9z M27.9,49.1l0.4-0.4c-0.8,12.1,4.6,23.4,13.6,28c-0.9,0-1.8-0.1-2.6-0.2  C31.1,71.4,26.7,60.5,27.9,49.1z M26.2,50.9l0.4-0.4c-0.7,10.3,3.1,20.1,10,25.7c-0.9-0.2-1.7-0.4-2.6-0.6  C28,69.6,25.1,60.5,26.2,50.9z M24.4,52.6l0.4-0.4c-0.6,8.6,1.8,16.7,6.8,22.5c-0.8-0.3-1.5-0.6-2.3-0.9  C25.3,68.1,23.5,60.4,24.4,52.6z M22.6,54.4L23,54c-0.5,6.7,1,13.3,4.1,18.7c-0.7-0.4-1.3-0.8-1.9-1.2  C22.8,66.3,21.9,60.5,22.6,54.4z M20.9,56.2l0.4-0.4c-0.4,5,0.3,9.8,1.9,14.1c-0.5-0.4-1-0.9-1.5-1.4C20.7,64.6,20.4,60.4,20.9,56.2  z M19.1,57.9l0.4-0.4c-0.2,3.1,0,6.1,0.5,9c-0.3-0.5-0.7-0.9-1-1.4C18.8,62.8,18.8,60.4,19.1,57.9z M17.7,59.3  c-0.1,1.1-0.1,2.1-0.1,3.2c-0.3-0.7-0.6-1.5-0.8-2.3L17.7,59.3z M21.2,92.1c-1.1,1.1-5.2,0.1-9.3-4c-4.1-4.1-5.1-8.2-4-9.3l6-6  c1.3,2.6,3.2,5.2,5.6,7.7c2.4,2.4,5,4.3,7.7,5.6L21.2,92.1z M31.6,85c-0.4-0.1-0.8-0.2-1.3-0.4c1.7,0.3,3.4,0.4,5.2,0.4  c0.7,0,1.3,0,2-0.1C36,85.7,33.9,85.7,31.6,85z M39.4,83.6c-4.7,0.5-9.4,0.1-13.7-1.3c-1.1-0.7-2.2-1.5-3.2-2.5  c4.4,2.2,9.5,3.4,14.8,3.4c0.8,0,1.7,0,2.5-0.1L39.4,83.6z M41.2,81.8c-8.2,0.9-16.2-1.1-22.1-5.6c-1.1-1.4-2-2.8-2.7-4.2  c5.1,6,13.5,9.6,22.7,9.6c0.8,0,1.7,0,2.5-0.1L41.2,81.8z M42.9,80c-13.7,1.6-24.1-4.9-28.2-12.8c-0.2-1.1-0.3-2-0.2-3  c3.6,9.3,14.2,15.4,26.2,15.4c0.8,0,1.7,0,2.5-0.1L42.9,80z M44.7,78.3C29.4,80,18,71.8,15.1,62.2c0.2-0.4,0.4-0.7,0.7-1  C19,71.2,30.1,78,42.7,78c0.8,0,1.6,0,2.4-0.1L44.7,78.3z M46.5,76.5c-0.5,0.1-1.1,0.1-1.6,0.1c-10.3-3.6-16.7-16-15.2-29.3l0.4-0.4  c-0.9,13.6,6.1,26,16.7,29.3L46.5,76.5z M47.8,75.2c-0.4-0.1-0.8-0.2-1.3-0.4c0.6,0,1.1,0,1.7-0.1L47.8,75.2z M49.6,73.4  c-1.9,0.2-3.9,0.3-5.9,0.1c-0.5-0.3-0.9-0.5-1.4-0.8c1.7,0.3,3.5,0.4,5.2,0.4c0.8,0,1.6,0,2.5-0.1L49.6,73.4z M51.4,71.6  c-3.8,0.4-7.6,0.2-11.2-0.6c-0.5-0.4-0.9-0.9-1.4-1.4c3.3,1.1,6.9,1.7,10.5,1.7c0.8,0,1.7,0,2.5-0.1L51.4,71.6z M53.1,69.8  c-5.6,0.6-11.1-0.1-16-2.1c-0.4-0.6-0.9-1.2-1.3-1.8c4.5,2.4,9.7,3.7,15.1,3.7c0.8,0,1.7,0,2.5-0.1L53.1,69.8z M54.9,68.1  c-7.4,0.8-14.5-0.7-20.3-4.3c-0.4-0.7-0.7-1.4-1-2.2c5.2,4,12,6.2,19.2,6.2c0.8,0,1.7,0,2.5-0.1L54.9,68.1z M56.7,66.3  c-9.1,1-18-1.6-23.9-7.2c-0.3-0.8-0.5-1.6-0.7-2.5c5.2,5.9,13.5,9.4,22.5,9.4c0.8,0,1.7,0,2.5-0.1L56.7,66.3z M58.4,64.5  c-11,1.2-21.4-2.8-26.9-10.5c-0.1-0.9-0.2-1.8-0.3-2.6c4.5,7.9,14.2,12.9,25,12.9c0.8,0,1.6,0,2.5-0.1L58.4,64.5z M60.2,62.8  C45.7,64.4,34.7,57,31.3,48.5c0-0.8,0.1-1.6,0.2-2.4c1.4,4.3,4.3,7.9,8.2,10.7c0,0,0,0,0,0l0,0c1.3,1,2.8,1.8,4.3,2.5c0,0,0,0,0,0  l0,0c1.5,0.7,3.2,1.4,4.9,1.9c0,0,0,0,0,0l0,0c1.7,0.5,3.5,0.8,5.4,1.1c0,0,0,0,0,0l0,0c1.3,0.2,2.6,0.2,4,0.2c0.8,0,1.6,0,2.4-0.1  L60.2,62.8z M62,61c-0.6,0.1-1.1,0.1-1.6,0.1c-10.3-3.6-16.6-16-15.1-29.3l0.4-0.4c-0.9,13.6,6.1,26,16.7,29.3L62,61z M63.2,59.7  c-0.4-0.1-0.8-0.2-1.2-0.4c0.5,0,1.1,0,1.6-0.1L63.2,59.7z M65,57.9c-1.9,0.2-3.9,0.3-5.9,0.1c-0.5-0.3-0.9-0.5-1.4-0.8  c1.7,0.3,3.4,0.4,5.1,0.4c0.8,0,1.6,0,2.5-0.1L65,57.9z M66.8,56.2c-3.8,0.4-7.5,0.2-11.2-0.6c-0.5-0.4-0.9-0.9-1.4-1.3  c3.3,1.1,6.8,1.7,10.4,1.7c0.8,0,1.7,0,2.5-0.1L66.8,56.2z M68.6,54.4c-5.6,0.6-11.1-0.1-16-2.1c-0.4-0.6-0.9-1.2-1.3-1.8  c4.5,2.4,9.7,3.6,15.1,3.6c0.8,0,1.7,0,2.5-0.1L68.6,54.4z M70.3,52.6C63,53.5,55.8,52,50.1,48.3c-0.4-0.7-0.7-1.4-1-2.2  c5.2,4,12,6.2,19.1,6.2c0.8,0,1.7,0,2.5-0.1L70.3,52.6z M72.1,50.9c-9.1,1-18-1.6-23.9-7.1c-0.3-0.8-0.5-1.6-0.7-2.5  c5.2,5.9,13.5,9.3,22.4,9.3c0.8,0,1.7,0,2.5-0.1L72.1,50.9z M73.9,49.1c-11,1.2-21.4-2.8-26.8-10.5c-0.1-0.9-0.2-1.8-0.3-2.6  c4.6,7.9,14.2,12.8,25,12.8c0.8,0,1.6,0,2.5-0.1L73.9,49.1z M75.6,47.3C61.2,49,50.2,41.5,46.7,33.1c0-0.8,0.1-1.6,0.1-2.4  c1.4,4.2,4.3,7.9,8.2,10.7c0,0,0,0,0,0l0,0c1.3,1,2.8,1.8,4.3,2.5c0,0,0,0,0,0l0,0c1.5,0.7,3.2,1.4,4.9,1.9c0,0,0,0,0,0l0,0  c1.7,0.5,3.5,0.8,5.4,1.1c0,0,0,0,0,0l0,0c1.3,0.2,2.6,0.2,4,0.2c0.8,0,1.6,0,2.4-0.1L75.6,47.3z M77.4,45.6  c-0.6,0.1-1.1,0.1-1.7,0.1c-6.3-2.2-11.3-7.9-13.8-15.3c0.8,1.1,1.6,2.2,2.6,3.2c3.1,5.8,7.8,10,13.1,11.6L77.4,45.6z M69.8,38.8  c0.6,0.2,1.3,0.4,1.9,0.6c1,0.5,2,1,2.9,1.4c-1.2-0.1-2.3-0.3-3.4-0.6C70.7,39.7,70.2,39.3,69.8,38.8z M78.7,44.3  c-0.4-0.1-0.8-0.2-1.2-0.4c0.5,0,1.1,0,1.6-0.1L78.7,44.3z M80.5,42.5c-1.9,0.2-3.9,0.3-5.8,0.2c-0.5-0.3-0.9-0.5-1.3-0.8  c1.7,0.3,3.4,0.4,5.1,0.4c0.8,0,1.6,0,2.5-0.1L80.5,42.5z M84.6,38.2C84.6,38.3,84.6,38.3,84.6,38.2c-0.2,0.3-0.4,0.5-0.6,0.7  c0,0,0,0,0,0c0,0,0,0,0,0c-3.4,3.4-11.3,1-17.7-5.3C60,27.4,57.6,19.4,61,16c1.9-1.9,4.9-1.7,7.3-1.1l-3.4,3.4  c-0.3,0.3-0.5,0.6-0.7,0.9c-1.4,2.8,0.4,7.6,4.6,11.9c3.3,3.3,6.9,5.1,9.7,5.1c0.8,0,1.5-0.2,2.2-0.5c0.3-0.2,0.7-0.4,0.9-0.7  l3.4-3.4C85.7,34.3,85.6,36.6,84.6,38.2C84.6,38.3,85.6,36.6,84.6,38.2z M79.9,33.3c-1.1,1.1-5.2,0.1-9.3-4c-4.1-4.1-5.1-8.2-4-9.3  l9.4-9.4c0.5,2.5,2.2,5.5,5,8.3c2.8,2.8,5.8,4.5,8.3,5L79.9,33.3z M92.1,21.2c-0.6,0.6-1.8,0.6-3.4,0c-1.9-0.7-4-2.1-5.9-4  s-3.3-4-4-5.9c-0.6-1.6-0.6-2.8,0-3.4c0.3-0.3,0.7-0.4,1.3-0.4c1.8,0,4.9,1.3,7.9,4.4C92.2,16,93.2,20.1,92.1,21.2z"/><text x="0" y="115" fill="#000000" font-size="5px" font-weight="bold" font-family="'Helvetica Neue', Helvetica, Arial-Unicode, Arial, Sans-serif">Created by Arthur Shlain</text><text x="0" y="120" fill="#000000" font-size="5px" font-weight="bold" font-family="'Helvetica Neue', Helvetica, Arial-Unicode, Arial, Sans-serif">from the Noun Project</text></svg>