<svg xmlns="http://www.w3.org/2000/svg" viewBox="0 0 90.99 85.2125" x="0px" y="0px"><title>Good fit</title><g data-name="Layer 2"><g data-name="Layer 5"><path d="M49.75,50.77a.49.49,0,0,0,0-.18s0,0,0,0L40.09,34.23l9.43-16.91a.49.49,0,0,0,.06-.22.47.47,0,0,0,0-.06.49.49,0,0,0,0-.17s0,0,0,0L40,.25A.5.5,0,0,0,39.52,0H20a.5.5,0,0,0-.43.25L.07,33.69a.5.5,0,0,0,0,.5L19.54,67.92l0,0a.49.49,0,0,0,.12.12l.05,0a.49.49,0,0,0,.23.06H39.45a.5.5,0,0,0,.43-.25l9.8-16.87a.49.49,0,0,0,.06-.23A.46.46,0,0,0,49.75,50.77Zm-1.36-.46H30.07L20.92,34.73H39.23ZM39.22,33.73H20.83L30,17.57H48.24Zm9-17.16H30L20.85,1H39.23ZM20,1.49l9.16,15.59L19.54,34a.5.5,0,0,0,0,.5l9.59,16.32L20,66.67,1.08,33.94ZM39.16,67.17H20.84L30,51.31H48.39Z"/><path d="M91,34a.47.47,0,0,0,0-.06.49.49,0,0,0,0-.17s0,0,0,0L81.19,17.11a.5.5,0,0,0-.42-.25l-19.48-.29h0a.49.49,0,0,0-.22.06l-.05,0a.49.49,0,0,0-.13.13l0,0L51.12,33.69a.5.5,0,0,0,0,.5l9.74,16.87,0,0a.49.49,0,0,0,.13.13l.05,0a.49.49,0,0,0,.22.06H80.76a.5.5,0,0,0,.43-.25l9.74-16.87h0A.49.49,0,0,0,91,34Zm-1.37-.52H71.38L62.16,17.59l18.31.27ZM61.29,18.07l9.22,15.87L61.29,49.81,52.13,33.94ZM80.47,50.31H62.16l9.22-15.87H89.63Z"/></g></g><text x="0" y="83.17" fill="#000000" font-size="5px" font-weight="bold" font-family="'Helvetica Neue', Helvetica, Arial-Unicode, Arial, Sans-serif">Created by john melven</text><text x="0" y="88.17" fill="#000000" font-size="5px" font-weight="bold" font-family="'Helvetica Neue', Helvetica, Arial-Unicode, Arial, Sans-serif">from the Noun Project</text></svg>