<svg xmlns="http://www.w3.org/2000/svg" xmlns:xlink="http://www.w3.org/1999/xlink" version="1.1" x="0px" y="0px" viewBox="0 0 100 125" enable-background="new 0 0 100 100" xml:space="preserve"><g><g><path d="M58.647,52.041c0.005-0.044,0.009-0.089,0.013-0.133c-0.005,0.053-0.01,0.102-0.016,0.153    C58.646,52.055,58.646,52.048,58.647,52.041z"/><path d="M89.56,68.787c-0.078-0.365-0.319-0.676-0.654-0.843l-17.814-8.846c-0.26-0.129-0.557-0.161-0.837-0.093l-11.967,2.921    c0.025-0.059,0.054-0.116,0.078-0.175c2.024-4.798,2.43-10.031,2.779-15.17c0.323-4.756,0.438-9.542,0.17-14.308    c-0.276-4.903-0.839-10.052-2.704-14.649c-0.643-1.583-1.064-2.052,0.238-3.574c1.142-1.375,3.121-1.825,4.818-2.052    c0.46-0.064,5.086-0.58,3.712-1.861c-1.066-0.991-4.975-0.771-6.674-1.141c-2.33-0.515-3.834-3.152-6.609-3.363    c-2.692-0.202-5.187,0.731-7.013,2.732c-2.139,2.337-2.906,5.632-5.042,7.94c-4.255,4.599-7.029,9.065-8.031,15.384    c-1.036,6.562-0.342,13.422,0.499,19.965c0.362,2.815,0.813,5.613,1.294,8.411L8.258,67.07c-0.033,0.009-0.061,0.027-0.093,0.038    c-0.021,0.007-0.043,0.004-0.064,0.013c-0.022,0.009-0.037,0.027-0.059,0.037C7.947,67.203,7.86,67.26,7.78,67.326    c-0.026,0.022-0.055,0.039-0.08,0.062c-0.094,0.094-0.173,0.2-0.233,0.319c-0.014,0.026-0.019,0.056-0.03,0.084    c-0.03,0.071-0.062,0.141-0.079,0.218c-0.006,0.027-0.001,0.056-0.005,0.083c-0.006,0.044-0.007,0.086-0.008,0.13    c-0.003,0.104,0.007,0.205,0.029,0.306c0.006,0.024,0,0.05,0.007,0.074l5.445,18.735c0.079,0.271,0.248,0.505,0.479,0.666    l6.899,4.789c0.019,0.013,0.038,0.025,0.057,0.037c0.001,0.002,0.001,0,0.001,0.002c0.092,0.057,0.189,0.1,0.29,0.131    c0.001,0,0.001,0,0.001,0c0.128,0.039,0.264,0.059,0.402,0.052c0.001,0,0.002,0,0.002,0c0.027-0.001,0.053-0.003,0.08-0.006    l8.874-0.886l19.096,2.58c0.009,0.001,0.018,0.002,0.026,0.003c0,0,0.001,0,0.003,0h0c0.001,0,0.002,0.001,0.003,0.001    s0.002,0,0.003,0c0,0,0.001,0,0.003,0c0,0,0.001,0.001,0.003,0.001c0,0,0.001,0,0.003,0c0,0,0,0,0.001,0    c0.001-0.001,0.002-0.001,0.004,0c0.001,0.002,0.002,0.001,0.003,0.001c0,0,0.001,0,0.003,0c0,0,0.006,0.001,0.01,0.001    c0,0,0,0,0,0c0.001,0,0.002,0,0.002,0c0.031,0.003,0.063,0.004,0.095,0.004c0.122,0,0.245-0.019,0.364-0.056l17.849-5.55    l9.993-0.64c0.027-0.001,0.056-0.004,0.083-0.007c0.199-0.024,0.383-0.096,0.54-0.202c0.108-0.073,0.206-0.164,0.289-0.272    c0.015-0.02,0.029-0.04,0.043-0.061l8.186-11.948c0.04-0.058,0.074-0.119,0.104-0.184l2.853-6.241l-0.003-0.002    C89.58,69.314,89.615,69.048,89.56,68.787z M55.129,7.777c1.733,0,1.733,2.685,0,2.685C53.4,10.461,53.394,7.777,55.129,7.777z     M38.826,33.674c0.414-1.611,1.293-3.292,2.543-4.421c0.966-0.873,2.316,0.61,1.365,1.493c-0.571,0.504-1.018,1.227-1.362,1.898    c-1.531,2.995-0.556,6.313,0.649,9.238c1.383,3.353,2.404,6.485,2.014,10.161c-0.213,1.982-2.146,7.166-0.299,8.708    c1.608,1.342,4.608-2.129,5.153-3.456c3.659-8.896-2.642-18.578-0.576-27.611c0.781-3.404,2.966-6.473,2.817-10.101    c-0.035-0.857-0.256-1.723-0.792-2.414c-0.778-1.004-2.019-1.01-2.887-1.806c-0.891-0.815-0.398-2.686,1.25-2.107    c0.785,0.275,0.66,0.895,0.855,1.531c0.262,0.854,1.443,1.35,2.342,1.052c1.525-0.502,2.511-0.416,3.371,0.313    c0.433,0.374,0.862,0.908,1.092,1.394c0.755,1.589,1.237,3.309,1.627,5.015c2.182,9.524,1.654,19.709,0.672,29.345    c0.598-5.829,1.727-16.843-0.013,0.133c-0.458,4.472-0.305,2.971-0.003,0.021c-0.505,4.923-1.904,10.104-5.227,13.909    c-1.253,1.433-3.555,2.261-3.686,4.224c-0.147,2.145-0.658,3.186-2.938,3.644c-0.198,0.038-2.161,0.425-2.123-0.094    c1.179-1.153,0.809-2.963,0.337-4.346c-0.937-2.753-3.064-5.283-3.548-8.164c-0.463-2.746,0.018-5.613,0.392-8.333    c0.468-3.408-0.043-6.291-1.365-9.449C39.203,40.393,37.962,37.027,38.826,33.674z M36.273,62.481    c0.54,2.401,1.221,5.138,0.617,7.348c-0.544,1.985-2.38,3.811-4.342,4.424c-0.873,0.275-2.664,0.63-2.469,1.906    c0.149,0.971,1.269,1.077,2.062,1.135c2.656,0.194,5.271-0.107,7.777-1.018c1.042-0.377,2.064-0.834,3.034-1.371    c0.578,1.267,1.659,2.212,3.105,2.212c3.236,0,6.47,0,9.708,0c0.672,0,3.041,0.063,2.212-1.361    c-0.99-1.694-5.501-1.79-7.182-2.097c1.413-0.845,0.325-2.58,0.973-3.616c0.606-0.358,1.173-0.776,1.702-1.237    c1.317-1.139,2.414-2.505,3.325-3.988l13.606-3.32l16.029,7.959l-5.569,6.762l-10.79-2.137c-0.146-0.028-0.293-0.022-0.438,0.002    c-0.043,0.007-0.082,0.021-0.124,0.033c-0.058,0.016-0.117,0.022-0.173,0.047l-19.572,8.672l-29.262-6.867l-9.203-7.138    L36.273,62.481z M15.062,86.234l-1.918-6.601l4.352,8.29L15.062,86.234z M12.273,72.693l6.497,5.039l0.542,8.371L12.273,72.693z     M22.053,90.44l-0.593-9.173l6.229,8.61L22.053,90.44z M30.621,89.742l-7.736-10.693l25.696,6.03l-0.533,7.017L30.621,89.742z     M66.109,86.935l-15.576,4.843l0.518-6.828l17.081-7.569L66.109,86.935z M76.475,86.067l-7.777,0.497l2.085-9.84l8.851,1.753    L76.475,86.067z"/></g></g><text x="0" y="115" fill="#000000" font-size="5px" font-weight="bold" font-family="'Helvetica Neue', Helvetica, Arial-Unicode, Arial, Sans-serif">Created by Merridee Stein</text><text x="0" y="120" fill="#000000" font-size="5px" font-weight="bold" font-family="'Helvetica Neue', Helvetica, Arial-Unicode, Arial, Sans-serif">from the Noun Project</text></svg>