<svg xmlns="http://www.w3.org/2000/svg" xmlns:xlink="http://www.w3.org/1999/xlink" version="1.1" x="0px" y="0px" viewBox="0 0 1200 1500" enable-background="new 0 0 1200 1200" xml:space="preserve"><g><path d="M574.6,204.3c0,0-39.6,17.9-59.5,24.1c-11.1,3.5-22.1,5.4-33.2,5.4c9.4-13.8,15-30.9,11.3-46.4c-4.4-18-19.2-38.2-40.1-38   c-40.8,0.5-52.6,55.2-21.4,78.6c9.6,7.2,19.8,11.5,30.3,13.8c-11.1,10.2-25.5,17.5-38.4,24c-38.5,19.5-82.3,30.8-124.5,17.9   c-6.2-1.9-8.9,7.8-2.7,9.7c57.2,17.5,123.2-6,168.8-41.7c3.1-2.4,6.1-5.2,8.9-8.3c11.5,0.8,23.3-0.6,35.4-3.2   c23.8-5.2,65.1-25.7,65.1-25.7V204.3z M424.9,200.1c-6.7-20.8,9.2-43.9,33.1-39.5c32.8,6.1,27.8,46.8,15.6,67.3   c-1.1,1.8-2.2,3.5-3.5,5.2c-5-0.6-10.1-1.7-15.2-3.2C440.6,225.6,429.4,214.1,424.9,200.1z"/><path d="M765,263.3c-26.8-36.6-85.2-66-135.1-67.2c0.1-6.3,0.1-9.7,0.1-9.7s2.9-38.4-25.9-39.5c-30-1.1-27.6,36.4-27.6,36.4   s36.1,815.2,38.8,822.4c2.7,7.2,3.6,6.7,5.9,0.7c0.8-2.1,7.4-674.5,8.7-800c25.9,1.2,52.5,10.2,74.8,20   c30.7,13.6,56.9,41.3,68.5,73c21.7,59.3-11.9,125.2-53.6,166.3c-25.8,25.4-60.5,48.4-91.5,72.6l0,11.1c4-3.4,10-6.7,14.1-10   c47.2-37.9,98.3-68.8,127.4-124C794.9,367.5,797.9,308.2,765,263.3z M602.8,258.3c-4.7,0-8.6-3.9-8.6-8.7l0.6-74.4   c0-4.7,3.9-8.6,8.7-8.6c4.7,0,8.6,3.9,8.6,8.7l-0.2,21.7c-5.1,0.6-10,1.6-14.8,3l-0.6,10.1c5-1.5,10.1-2.4,15.3-3l-0.3,42.7   C611.5,254.5,607.5,258.3,602.8,258.3z"/><path d="M534.6,725.1c1.4,6.3,11.1,3.8,9.7-2.6c-10.7-48.5,1-87.9,34.5-123.8c4.2-4.5,7.9-8.9,12.9-13.3V573   C549.6,612.5,519.9,658.9,534.6,725.1z"/></g><text x="0" y="1215" fill="#000000" font-size="5px" font-weight="bold" font-family="'Helvetica Neue', Helvetica, Arial-Unicode, Arial, Sans-serif">Created by Nana Faisal</text><text x="0" y="1220" fill="#000000" font-size="5px" font-weight="bold" font-family="'Helvetica Neue', Helvetica, Arial-Unicode, Arial, Sans-serif">from the Noun Project</text></svg>