<svg xmlns="http://www.w3.org/2000/svg" xmlns:xlink="http://www.w3.org/1999/xlink" viewBox="0 0 100 125" version="1.1" x="0px" y="0px"><title>Finger Print</title><desc>Created with Sketch.</desc><g stroke="none" stroke-width="1" fill="none" fill-rule="evenodd"><g fill="#000000"><g transform="translate(9.000000, 0.000000)"><path d="M73.0913542,61.6164583 C72.9455208,61.6164583 72.7986458,61.5945833 72.6538542,61.5477083 C71.9090625,61.305 71.5017708,60.5070833 71.7434375,59.7622917 C73.8038542,53.4122917 74.8923958,47.2685417 74.8923958,41.9945833 C74.8923958,22.3779167 59.4778125,6.41958333 40.5298958,6.41958333 C21.5830208,6.41958333 6.16739583,22.3779167 6.16739583,41.9945833 C6.16739583,44.5966667 6.4371875,47.4404167 6.96739583,50.4445833 C7.10385417,51.2154167 6.58927083,51.9508333 5.8184375,52.0872917 C5.05697917,52.2247917 4.31322917,51.708125 4.1778125,50.9372917 C3.6184375,47.7695833 3.3340625,44.76125 3.3340625,41.9945833 C3.3340625,20.8154167 20.0205208,3.58625 40.5298958,3.58625 C61.0403125,3.58625 77.7257292,20.8154167 77.7257292,41.9945833 C77.7257292,47.56125 76.5892708,54.0070833 74.4382292,60.6372917 C74.2444792,61.23625 73.6882292,61.6164583 73.0913542,61.6164583 M71.8111458,67.4497917 C71.5309375,67.7841667 71.1288542,67.9570833 70.7236458,67.9570833 C70.4028125,67.9570833 70.0809375,67.84875 69.8153125,67.6279167 C64.7267708,63.37375 66.9851042,49.4591667 67.4903125,46.7122917 C68.7080208,40.0779167 67.6715625,33.4122917 64.5726042,27.9425 C63.3673958,25.814375 61.8996875,23.8508333 60.2101042,22.1039583 C59.6663542,21.5414583 59.6809375,20.645625 60.2444792,20.1008333 C60.8069792,19.5570833 61.7028125,19.57375 62.2476042,20.1341667 C64.1028125,22.051875 65.7142708,24.2091667 67.0382292,26.545625 C70.4653125,32.5925 71.6153125,39.9372917 70.2767708,47.2247917 C68.9663542,54.3622917 68.8309375,63.1122917 71.6330208,65.4529167 C72.2330208,65.955 72.3132292,66.8477083 71.8111458,67.4497917 M68.0455208,73.3997917 C67.8038542,73.91125 67.2955208,74.21125 66.7642708,74.21125 C66.5611458,74.21125 66.3548958,74.1685417 66.1601042,74.0758333 C61.2288542,71.7477083 59.7830208,62.3779167 61.7413542,45.4320833 C62.1976042,41.4716667 61.7226042,37.62375 60.3642708,34.3039583 C56.9819792,26.03625 49.1965625,20.6935417 40.5298958,20.6935417 C28.6788542,20.6935417 19.0340625,30.6664583 18.9996875,42.9372917 C19.1996875,44.6977083 21.2955208,65.220625 11.1163542,68.651875 C10.9663542,68.701875 10.8142708,68.7258333 10.6642708,68.7258333 C10.0726042,68.7258333 9.5215625,68.3529167 9.3215625,67.76125 C9.0715625,67.0195833 9.47052083,66.2154167 10.2121875,65.9654167 C17.0507292,63.6602083 16.8340625,48.7289583 16.1746875,43.170625 C16.1705208,43.1435417 16.1746875,43.1164583 16.1726042,43.0883333 C16.1705208,43.0602083 16.1642708,43.0320833 16.1642708,43.0029167 C16.1642708,29.1383333 27.0944792,17.8591667 40.5298958,17.8591667 C50.3517708,17.8591667 59.1663542,23.8925 62.9871875,33.2310417 C64.5257292,36.9925 65.0673958,41.32375 64.5559375,45.7560417 C62.1403125,66.664375 65.7194792,70.7341667 67.3694792,71.5133333 C68.0778125,71.8466667 68.3798958,72.6925 68.0455208,73.3997917 M65.0382292,81.1154167 C64.7257292,81.8320833 63.8903125,82.1633333 63.1736458,81.84875 C59.0371875,80.0477083 56.3944792,73.9997917 54.7361458,67.8497917 C52.6944792,90.8122917 43.3090625,96.0758333 42.8351042,96.3258333 C42.6236458,96.4383333 42.3976042,96.4904167 42.1746875,96.4904167 C41.6663542,96.4904167 41.1746875,96.2164583 40.9205208,95.73625 C40.5569792,95.0477083 40.8163542,94.195625 41.4996875,93.8279167 C41.6830208,93.7227083 53.7184375,86.558125 52.1496875,52.6195833 C52.1153125,51.8477083 52.7048958,51.189375 53.4757292,51.1404167 C54.2496875,51.0977083 54.9163542,51.670625 54.9778125,52.4404167 C55.5048958,58.99875 58.2090625,76.5966667 64.3048958,79.251875 C65.0226042,79.5633333 65.3507292,80.3977083 65.0382292,81.1154167 M61.3246875,85.5352083 C61.0486458,86.2675 60.2309375,86.6404167 59.4996875,86.36125 C58.2851042,85.9039583 57.3392708,84.8560417 56.6330208,83.7216667 C55.3934375,87.3341667 53.5840625,91.1591667 53.4767708,91.38625 C53.2351042,91.895625 52.7267708,92.1945833 52.1965625,92.1945833 C51.9923958,92.1945833 51.7861458,92.1508333 51.5903125,92.0591667 C50.8830208,91.7216667 50.5819792,90.8779167 50.9173958,90.1695833 C50.9528125,90.0966667 54.4548958,82.6883333 54.9163542,79.2029167 C55.0048958,78.5310417 55.5580208,78.0175 56.2340625,77.9758333 C56.9184375,77.93625 57.5226042,78.3779167 57.6923958,79.0341667 C58.1267708,80.69875 59.2840625,83.2529167 60.4986458,83.7102083 C61.2309375,83.98625 61.6007292,84.8039583 61.3246875,85.5352083 M34.1465625,95.0654167 C33.9767708,95.133125 33.8007292,95.164375 33.6288542,95.164375 C33.0632292,95.164375 32.5288542,94.82375 32.3101042,94.2654167 C32.0226042,93.5383333 32.3809375,92.714375 33.1090625,92.4289583 C40.8173958,89.3966667 43.7288542,77.7841667 44.8132292,68.576875 C46.0246875,58.2997917 45.2684375,48.6445833 45.2601042,48.54875 C45.2590625,48.53 45.2621875,48.5102083 45.2611458,48.4904167 C45.2611458,48.4716667 45.2559375,48.4529167 45.2559375,48.4341667 C45.2559375,44.305 43.1694792,40.814375 40.7007292,40.814375 C38.2319792,40.814375 36.1465625,44.305 36.1465625,48.4341667 C36.1465625,49.2164583 35.5121875,49.8508333 34.7288542,49.8508333 C33.9465625,49.8508333 33.3121875,49.2164583 33.3121875,48.4341667 C33.3121875,42.57375 36.5580208,37.9820833 40.7007292,37.9820833 C44.8194792,37.9820833 48.0486458,42.5216667 48.0861458,48.3341667 C48.2298958,50.1289583 51.0923958,88.3997917 34.1465625,95.0654167 M28.1184375,92.1945833 C27.6028125,92.1945833 27.1048958,91.91125 26.8538542,91.4195833 C26.4996875,90.7227083 26.7788542,89.8695833 27.4757292,89.5154167 C44.0548958,81.089375 39.3476042,46.37375 39.2976042,46.0247917 C39.1882292,45.2497917 39.7267708,44.533125 40.5017708,44.4227083 C41.2788542,44.320625 41.9934375,44.8508333 42.1028125,45.6258333 C42.1569792,45.9997917 43.3923958,54.89875 42.4528125,65.06125 C41.1840625,78.805 36.4486458,88.1341667 28.7590625,92.0404167 C28.5538542,92.1466667 28.3351042,92.1945833 28.1184375,92.1945833 M23.0319792,87.8508333 C22.4257292,87.8508333 21.8653125,87.458125 21.6778125,86.84875 C21.4486458,86.1008333 21.8694792,85.308125 22.6173958,85.0789583 C28.5434375,83.26125 31.3538542,75.0070833 32.6673958,68.4039583 C34.1444792,60.9810417 34.0903125,53.94875 34.0892708,53.8779167 C34.0809375,53.0945833 34.7090625,52.455 35.4913542,52.4466667 L35.5059375,52.4466667 C36.2830208,52.4466667 36.9153125,53.0716667 36.9226042,53.84875 C36.9361458,55.0622917 37.0705208,83.6091667 23.4486458,87.7872917 C23.3101042,87.8310417 23.1694792,87.8508333 23.0319792,87.8508333 M18.5423958,81.89875 C18.3976042,81.945625 18.2517708,81.9664583 18.1069792,81.9664583 C17.5090625,81.9664583 16.9528125,81.5852083 16.7590625,80.98625 C16.5184375,80.2404167 16.9278125,79.4425 17.6726042,79.201875 C30.3340625,75.1175 27.5882292,47.645625 27.5601042,47.3685417 C27.5569792,47.3435417 27.5611458,47.3185417 27.5590625,47.2945833 C27.5580208,47.2695833 27.5517708,47.245625 27.5517708,47.220625 C27.5517708,38.3779167 33.4507292,31.1841667 40.7007292,31.1841667 C47.9517708,31.1841667 53.8507292,38.3779167 53.8507292,47.220625 C53.8507292,48.0029167 53.2163542,48.6372917 52.4330208,48.6372917 C51.6507292,48.6372917 51.0163542,48.0029167 51.0163542,47.220625 C51.0163542,39.9404167 46.3892708,34.0185417 40.7007292,34.0185417 C35.0257292,34.0185417 30.4090625,39.9133333 30.3871875,47.1695833 C30.5944792,49.2195833 33.1351042,77.1914583 18.5423958,81.89875 M22.4496875,43.4779167 C22.4496875,33.1977083 30.5601042,24.8320833 40.5298958,24.8320833 C50.4996875,24.8320833 58.6101042,33.1977083 58.6101042,43.4779167 C58.6101042,44.2602083 57.9757292,44.8945833 57.1934375,44.8945833 C56.4101042,44.8945833 55.7757292,44.2602083 55.7757292,43.4779167 C55.7757292,34.7591667 48.9371875,27.6664583 40.5298958,27.6664583 C32.1226042,27.6664583 25.2840625,34.7591667 25.2840625,43.4779167 C25.2840625,44.2602083 24.6496875,44.8945833 23.8673958,44.8945833 C23.0840625,44.8945833 22.4496875,44.2602083 22.4496875,43.4779167 M13.8361458,75.1966667 C13.2246875,75.1966667 12.6611458,74.7977083 12.4788542,74.1820833 C12.2559375,73.4320833 12.6840625,72.6435417 13.4340625,72.420625 C22.1048958,69.8508333 22.9319792,55.9195833 22.8851042,50.0497917 C22.8788542,49.2675 23.5080208,48.6279167 24.2903125,48.620625 L24.3017708,48.620625 C25.0788542,48.620625 25.7121875,49.24875 25.7184375,50.026875 C25.7705208,56.5383333 24.7559375,72.020625 14.2392708,75.1372917 C14.1059375,75.1779167 13.9694792,75.1966667 13.8361458,75.1966667 M7.9246875,61.464375 C7.38927083,61.464375 6.8778125,61.16125 6.63822917,60.6425 C6.31010417,59.933125 6.61947917,59.0904167 7.32989583,58.7622917 C9.19135417,57.901875 10.2486458,51.6997917 9.90177083,43.6810417 C9.86635417,42.84875 9.83302083,41.9622917 9.87260417,41.0716667 C10.6111458,24.1185417 24.0778125,10.8383333 40.5298958,10.8383333 C45.9913542,10.8383333 51.3538542,12.3372917 56.0382292,15.1747917 C56.7080208,15.5810417 56.9226042,16.451875 56.5163542,17.1216667 C56.1111458,17.7904167 55.2403125,18.0039583 54.5705208,17.59875 C50.3288542,15.0289583 45.4736458,13.6716667 40.5298958,13.6716667 C25.5996875,13.6716667 13.3757292,25.76125 12.7028125,41.195625 C12.6694792,41.9727083 12.6976042,42.7570833 12.7330208,43.558125 C13.0392708,50.6383333 12.5569792,59.4675 8.5184375,61.3341667 C8.32677083,61.4227083 8.12364583,61.464375 7.9246875,61.464375 M40.5298958,0.000833333333 C16.6892708,0.000833333333 -0.0003125,21.2352083 -0.0003125,42.539375 C-0.0003125,67.4602083 20.2330208,99.089375 40.5298958,99.089375 C60.8278125,99.089375 81.0601042,67.0695833 81.0601042,42.539375 C81.0601042,21.2352083 65.1569792,0.000833333333 40.5298958,0.000833333333"/></g></g></g><text x="0" y="115" fill="#000000" font-size="5px" font-weight="bold" font-family="'Helvetica Neue', Helvetica, Arial-Unicode, Arial, Sans-serif">Created by AomAm</text><text x="0" y="120" fill="#000000" font-size="5px" font-weight="bold" font-family="'Helvetica Neue', Helvetica, Arial-Unicode, Arial, Sans-serif">from the Noun Project</text></svg>