<svg xmlns="http://www.w3.org/2000/svg" xmlns:xlink="http://www.w3.org/1999/xlink" version="1.1" x="0px" y="0px" viewBox="0 0 100 125" style="enable-background:new 0 0 100 100;" xml:space="preserve"><path d="M31.905,65.209c-2.215,0-4.302,0.544-6.151,1.49c-0.642-2.955-3.274-5.177-6.419-5.177c-3.624,0-6.571,2.948-6.571,6.571  c0,0.553,0.448,1,1,1s1-0.447,1-1c0-2.521,2.051-4.571,4.571-4.571c2.44,0,4.423,1.927,4.548,4.338  c-3.357,2.473-5.548,6.44-5.548,10.919c0,0.553,0.448,1,1,1s1-0.447,1-1c0-6.379,5.19-11.569,11.57-11.569  c6.296,0,11.423,5.058,11.557,11.321h-6.177c-0.552,0-1,0.447-1,1s0.448,1,1,1h36.374c0.552,0,1-0.447,1-1s-0.448-1-1-1H45.462  C45.328,71.163,39.303,65.209,31.905,65.209z"/><path d="M26.773,38.089c0.196,0.196,0.452,0.295,0.709,0.295c0.255,0,0.51-0.097,0.706-0.291c0.391-0.39,0.393-1.022,0.003-1.414  l-8.147-8.187c-0.376-0.377-1.042-0.377-1.418,0l-8.147,8.187c-0.39,0.392-0.388,1.024,0.003,1.414  c0.392,0.39,1.024,0.388,1.415-0.004l6.438-6.469v2.382l-7.856,7.895c-0.39,0.392-0.388,1.024,0.003,1.414  c0.393,0.391,1.026,0.388,1.415-0.004l6.438-6.47v2.383l-7.856,7.894c-0.39,0.392-0.388,1.024,0.003,1.414  c0.392,0.39,1.024,0.388,1.415-0.004l6.438-6.469v2.246l-7.856,7.894c-0.39,0.392-0.388,1.024,0.003,1.414  c0.392,0.39,1.024,0.388,1.415-0.004l6.438-6.469V59h-7.147c-0.552,0-1,0.447-1,1s0.448,1,1,1h30.687c0.552,0,1-0.447,1-1  s-0.448-1-1-1h-8.943c0.284-5.695,4.993-10.244,10.757-10.244c5.664,0,10.312,4.392,10.742,9.947  c-3.891,0.388-6.946,3.636-7.043,7.605h-4.33c-0.552,0-1,0.447-1,1s0.448,1,1,1h12.157c0.552,0,1-0.447,1-1s-0.448-1-1-1h-5.827  c0.103-3.129,2.674-5.645,5.827-5.645c3.218,0,5.837,2.618,5.837,5.837c0,0.553,0.448,1,1,1s1-0.447,1-1  c0-3.906-2.875-7.144-6.618-7.732c-0.345-5.726-4.464-10.442-9.904-11.683V33.118l8.631,8.673c0.39,0.391,1.022,0.394,1.415,0.004  c0.391-0.39,0.393-1.022,0.003-1.414L46.53,30.283v-3.614l8.631,8.673c0.39,0.391,1.022,0.394,1.415,0.004  c0.391-0.39,0.393-1.022,0.003-1.414L46.53,23.833v-3.788l8.631,8.673c0.39,0.391,1.022,0.394,1.415,0.004  c0.391-0.39,0.393-1.022,0.003-1.414L46.53,17.21v-3.788l8.631,8.673c0.39,0.391,1.022,0.394,1.415,0.004  c0.391-0.39,0.393-1.022,0.003-1.414l-10.34-10.391c0,0-0.001,0-0.001,0C46.057,10.113,45.807,10,45.53,10s-0.527,0.113-0.708,0.294  c0,0-0.001,0-0.001,0l-10.34,10.391c-0.39,0.392-0.388,1.024,0.003,1.414c0.195,0.194,0.451,0.291,0.706,0.291  c0.257,0,0.514-0.099,0.709-0.295l8.631-8.673v3.788L34.481,27.309c-0.39,0.392-0.388,1.024,0.003,1.414  c0.195,0.194,0.451,0.291,0.706,0.291c0.257,0,0.514-0.099,0.709-0.295l8.631-8.673v3.788L34.481,33.932  c-0.39,0.392-0.388,1.024,0.003,1.414c0.195,0.194,0.451,0.291,0.706,0.291c0.257,0,0.514-0.099,0.709-0.295l8.631-8.673v3.614  L34.481,40.381c-0.39,0.392-0.388,1.024,0.003,1.414c0.195,0.194,0.451,0.291,0.706,0.291c0.257,0,0.514-0.099,0.709-0.295  l8.631-8.673v13.68c-0.279-0.018-0.557-0.043-0.841-0.043c-6.867,0-12.471,5.447-12.757,12.244H20.335V47.138l6.438,6.469  c0.196,0.196,0.452,0.295,0.709,0.295c0.255,0,0.51-0.097,0.706-0.291c0.391-0.39,0.393-1.022,0.003-1.414l-7.856-7.894v-2.246  l6.438,6.469c0.196,0.196,0.452,0.295,0.709,0.295c0.255,0,0.51-0.097,0.706-0.291c0.391-0.39,0.393-1.022,0.003-1.414l-7.856-7.894  v-2.383l6.438,6.47c0.195,0.196,0.452,0.295,0.709,0.295c0.255,0,0.51-0.097,0.706-0.291c0.391-0.39,0.393-1.022,0.003-1.414  l-7.856-7.895V31.62L26.773,38.089z"/><path d="M88.775,26.615c0.195,0.196,0.452,0.295,0.709,0.295c0.255,0,0.51-0.097,0.706-0.291c0.391-0.39,0.393-1.022,0.003-1.414  l-9.667-9.715c-0.188-0.188-0.443-0.295-0.709-0.295s-0.521,0.106-0.709,0.295l-9.667,9.715c-0.39,0.392-0.388,1.024,0.003,1.414  c0.393,0.391,1.025,0.388,1.415-0.004l7.958-7.997v3.357l-9.376,9.421c-0.39,0.392-0.388,1.024,0.003,1.414  c0.392,0.39,1.024,0.388,1.415-0.004l7.958-7.996v3.356l-9.376,9.422c-0.39,0.392-0.388,1.024,0.003,1.414  c0.393,0.391,1.025,0.388,1.415-0.004l7.958-7.997v3.195l-9.376,9.421c-0.39,0.392-0.388,1.024,0.003,1.414  c0.392,0.39,1.024,0.388,1.415-0.004l7.958-7.996v14.39c-1.299,0.08-2.511,0.477-3.564,1.116c-0.834-3.43-3.924-5.988-7.608-5.988  c-4.321,0-7.837,3.516-7.837,7.837c0,0.553,0.448,1,1,1s1-0.447,1-1c0-3.219,2.619-5.837,5.837-5.837  c3.097,0,5.631,2.426,5.819,5.476c-1.189,1.331-1.929,3.067-1.986,4.974H64.16c-0.552,0-1,0.447-1,1s0.448,1,1,1h24.965  c0.552,0,1-0.447,1-1s-0.448-1-1-1h-1.996c-0.11-3.698-2.787-6.76-6.311-7.453V37.032l7.958,7.996  c0.196,0.196,0.452,0.295,0.709,0.295c0.255,0,0.51-0.097,0.706-0.291c0.391-0.39,0.393-1.022,0.003-1.414l-9.376-9.421v-3.195  l7.958,7.997c0.195,0.196,0.452,0.295,0.709,0.295c0.255,0,0.51-0.097,0.706-0.291c0.391-0.39,0.393-1.022,0.003-1.414l-9.376-9.422  V24.81l7.958,7.996c0.196,0.196,0.452,0.295,0.709,0.295c0.255,0,0.51-0.097,0.706-0.291c0.391-0.39,0.393-1.022,0.003-1.414  l-9.376-9.421v-3.357L88.775,26.615z M85.129,59H73.478c0.124-3.11,2.686-5.603,5.825-5.603C82.443,53.397,85.004,55.89,85.129,59z"/><path d="M50.812,88.035H35.19c-0.552,0-1,0.447-1,1s0.448,1,1,1h15.622c0.552,0,1-0.447,1-1S51.364,88.035,50.812,88.035z"/><path d="M89.125,83.283H54.429c-0.552,0-1,0.447-1,1s0.448,1,1,1h34.696c0.552,0,1-0.447,1-1S89.677,83.283,89.125,83.283z"/><path d="M86.827,65.308c0-0.553-0.448-1-1-1H70.205c-0.552,0-1,0.447-1,1s0.448,1,1,1h15.622  C86.379,66.308,86.827,65.86,86.827,65.308z"/><path d="M28.146,84.283c0-0.553-0.448-1-1-1H11.524c-0.552,0-1,0.447-1,1s0.448,1,1,1h15.622  C27.698,85.283,28.146,84.836,28.146,84.283z"/><path d="M60.765,90.035c0.552,0,1-0.447,1-1s-0.448-1-1-1H56.68c-0.552,0-1,0.447-1,1s0.448,1,1,1H60.765z"/><path d="M77.775,72.285c-0.552,0-1,0.447-1,1s0.448,1,1,1h4.085c0.552,0,1-0.447,1-1s-0.448-1-1-1H77.775z"/><path d="M58.08,72.277c0.552,0,1-0.447,1-1s-0.448-1-1-1h-4.084c-0.552,0-1,0.447-1,1s0.448,1,1,1H58.08z"/><text x="0" y="115" fill="#000000" font-size="5px" font-weight="bold" font-family="'Helvetica Neue', Helvetica, Arial-Unicode, Arial, Sans-serif">Created by Made</text><text x="0" y="120" fill="#000000" font-size="5px" font-weight="bold" font-family="'Helvetica Neue', Helvetica, Arial-Unicode, Arial, Sans-serif">from the Noun Project</text></svg>